<?xml version="1.0" encoding="UTF-8" standalone="no"?>
<!-- Created with Inkscape (http://www.inkscape.org/) -->

<svg
   xmlns:dc="http://purl.org/dc/elements/1.1/"
   xmlns:cc="http://creativecommons.org/ns#"
   xmlns:rdf="http://www.w3.org/1999/02/22-rdf-syntax-ns#"
   xmlns:svg="http://www.w3.org/2000/svg"
   xmlns="http://www.w3.org/2000/svg"
   xmlns:sodipodi="http://sodipodi.sourceforge.net/DTD/sodipodi-0.dtd"
   xmlns:inkscape="http://www.inkscape.org/namespaces/inkscape"
   width="97.158493mm"
   height="117.30566mm"
   viewBox="0 0 344.26238 415.64999"
   id="svg7197"
   version="1.1"
   inkscape:version="0.91 r13725"
   sodipodi:docname="atome_orange_degrade2.svg">
  <defs
     id="defs7199">
    <clipPath
       clipPathUnits="userSpaceOnUse"
       id="clipPath4526">
      <path
         d="m 1452.18,3514.81 c -2.24,-76.11 -31.91,-148.84 -84.27,-205.58 l -11.93,-12.87 -220.8,-220.91 -219.77,219.77 -12.969,14.11 c -54.492,58.95 -84.492,135.29 -84.492,214.75 0,84.76 33.028,164.43 92.91,224.31 59.883,59.98 139.551,92.91 224.321,92.91 150.72,0 277.11,-105.66 309.23,-246.79 l 144.52,0 c -33.91,220.11 -224.16,388.7 -453.75,388.7 -126.78,0 -241.625,-51.36 -324.692,-134.43 -83.066,-83.08 -134.441,-197.93 -134.441,-324.7 0,-120.14 46.551,-229.22 122.137,-311.06 l -0.657,-0.57 12.864,-12.86 0.285,-0.29 324.504,-324.49 324.31,324.31 0.37,0.29 0.3,0.37 12.57,12.67 -0.56,0.57 c 73.63,79.72 119.57,185.32 121.91,301.79 l -141.9,0 z"
         id="path4528"
         inkscape:connector-curvature="0" />
    </clipPath>
    <linearGradient
       x1="0"
       y1="0"
       x2="1"
       y2="0"
       gradientUnits="userSpaceOnUse"
       gradientTransform="matrix(499.531,-499.531,-499.531,-499.531,926.074,3733.18)"
       spreadMethod="pad"
       id="linearGradient4530">
      <stop
         style="stop-opacity:1;stop-color:#f9a72b"
         offset="0"
         id="stop4532" />
      <stop
         style="stop-opacity:1;stop-color:#f2521b"
         offset="1"
         id="stop4534" />
    </linearGradient>
    <clipPath
       clipPathUnits="userSpaceOnUse"
       id="clipPath4512">
      <path
         d="M 755.227,2779.84 0,3611.34 l 897.723,19.94 755.227,-831.5 -897.723,-19.94"
         id="path4514"
         inkscape:connector-curvature="0" />
    </clipPath>
  </defs>
  <sodipodi:namedview
     id="base"
     pagecolor="#ffffff"
     bordercolor="#666666"
     borderopacity="1.0"
     inkscape:pageopacity="0.0"
     inkscape:pageshadow="2"
     inkscape:zoom="0.59"
     inkscape:cx="-423.25052"
     inkscape:cy="74.720425"
     inkscape:document-units="px"
     inkscape:current-layer="layer2"
     showgrid="false"
     inkscape:window-width="1920"
     inkscape:window-height="1016"
     inkscape:window-x="0"
     inkscape:window-y="27"
     inkscape:window-maximized="1"
     fit-margin-top="0"
     fit-margin-left="0"
     fit-margin-right="0"
     fit-margin-bottom="0" />
  <metadata
     id="metadata7202">
    <rdf:RDF>
      <cc:Work
         rdf:about="">
        <dc:format>image/svg+xml</dc:format>
        <dc:type
           rdf:resource="http://purl.org/dc/dcmitype/StillImage" />
        <dc:title></dc:title>
      </cc:Work>
    </rdf:RDF>
  </metadata>
  <g
     inkscape:groupmode="layer"
     id="layer2"
     inkscape:label="Layer 2"
     transform="translate(-346.73722,-30.84655)" />
  <g
     inkscape:label="Layer 1"
     inkscape:groupmode="layer"
     id="layer1"
     transform="translate(-346.73722,-30.84655)">
    <g
       id="g4522"
       transform="matrix(0.375,0,0,-0.375,93.219591,1524.5503)">
      <g
         clip-path="url(#clipPath4526)"
         id="g4524">
        <path
           inkscape:connector-curvature="0"
           id="path4536"
           style="fill:url(#linearGradient4530);fill-opacity:1;fill-rule:nonzero;stroke:none"
           d="m 1452.18,3514.81 c -2.24,-76.11 -31.91,-148.84 -84.27,-205.58 l -11.93,-12.87 -220.8,-220.91 -219.77,219.77 -12.969,14.11 c -54.492,58.95 -84.492,135.29 -84.492,214.75 0,84.76 33.028,164.43 92.91,224.31 59.883,59.98 139.551,92.91 224.321,92.91 150.72,0 277.11,-105.66 309.23,-246.79 l 144.52,0 c -33.91,220.11 -224.16,388.7 -453.75,388.7 -126.78,0 -241.625,-51.36 -324.692,-134.43 -83.066,-83.08 -134.441,-197.93 -134.441,-324.7 0,-120.14 46.551,-229.22 122.137,-311.06 l -0.657,-0.57 12.864,-12.86 0.285,-0.29 324.504,-324.49 324.31,324.31 0.37,0.29 0.3,0.37 12.57,12.67 -0.56,0.57 c 73.63,79.72 119.57,185.32 121.91,301.79 l -141.9,0" />
      </g>
    </g>
    <path
       inkscape:connector-curvature="0"
       id="path4538"
       style="fill:#f1511b;fill-opacity:1;fill-rule:nonzero;stroke:none"
       d="m 537.60209,313.8328 c 0,10.2375 -8.2989,18.53625 -18.5289,18.53625 -10.2336,0 -18.5325,-8.29875 -18.5325,-18.53625 0,-10.23375 8.2989,-18.52875 18.5325,-18.52875 10.23,0 18.5289,8.295 18.5289,18.52875" />
    <path
       inkscape:connector-curvature="0"
       id="path4540"
       style="fill:#4f4c4c;fill-opacity:1;fill-rule:nonzero;stroke:none"
       d="m 636.14069,184.49905 c 0.675,4.60875 1.065,9.3075 1.1964,14.07375 l 53.2161,0 c -0.087,-4.73625 -0.3225,-9.43875 -0.7911,-14.07375 l -53.6214,0" />
    <path
       inkscape:connector-curvature="0"
       id="path4542"
       style="fill:#4f4c4c;fill-opacity:1;fill-rule:nonzero;stroke:none"
       d="m 523.91069,163.7653 c 6.5475,3.77625 12.78,7.365 19.3764,11.1675 -1.1439,-5.655 -2.22,-10.9725 -3.3525,-16.5825 -5.5089,1.86 -10.5825,3.57375 -16.0239,5.415 z m -26.5011,-5.4075 c -1.1364,5.67375 -2.2014,10.98 -3.3189,16.5675 6.5925,-3.79875 12.8025,-7.38375 19.335,-11.145 -5.3661,-1.81875 -10.5111,-3.5625 -16.0161,-5.4225 z m 0.213,73.60875 c 5.28,-1.785 10.425,-3.525 15.7986,-5.3475 -6.5361,-3.76875 -12.7611,-7.36125 -19.2786,-11.115 0.8136,4.26 1.5486,8.23875 2.3475,12.19875 0.267,1.3275 0.6936,2.625 1.1325,4.26375 z m 45.6525,-16.5075 c -6.63,3.82125 -12.8364,7.4025 -19.3539,11.16 5.3964,1.82625 10.5489,3.57 16.0275,5.4225 1.14,-5.6775 2.1975,-10.9725 3.3264,-16.5825 z m 5.205,-9.06 c 4.3611,-3.84 8.43,-7.42125 12.735,-11.2125 -4.3689,-3.8325 -8.415,-7.3875 -12.735,-11.17125 0,7.59375 0,14.7075 0,22.38375 z m -59.6064,-22.39875 c -4.335,3.81 -8.4075,7.39125 -12.7464,11.1975 4.3689,3.83625 8.4414,7.4025 12.7464,11.17875 0,-7.63875 0,-14.76 0,-22.37625 z m 10.2186,-30.675 c 0.615,0.2439 1.035,0.405 1.455,0.57375 5.6214,2.29875 11.2614,4.575 16.86,6.92625 0.9264,0.39 1.6464,0.375 2.5614,-0.006 5.5611,-2.32875 11.145,-4.5825 16.725,-6.87 0.4986,-0.195 0.9861,-0.40875 1.4586,-0.6075 -1.6986,-6.34875 -5.7786,-14.4525 -9.9411,-19.15125 -1.5225,-1.71375 -3.3525,-3.32625 -5.355,-4.41 -4.0125,-2.175 -7.8489,-1.305 -11.5239,2.12625 -6.2586,5.835 -9.3561,13.47375 -12.24,21.42 z m -6.9636,79.7325 c 0,-0.37875 0.03,-0.5775 -0.003,-0.77625 -0.8589,-6.12375 -1.785,-12.24 -2.5389,-18.375 -0.165,-1.365 -0.6861,-2.14125 -1.74,-2.9325 -4.3461,-3.24375 -8.6175,-6.59625 -12.9111,-9.9225 -0.75,-0.5775 -1.47,-1.1925 -2.28,-1.86 -4.4583,5.09625 -8.4867,10.3125 -10.9329,16.5225 -0.8994,2.28 -1.5468,4.7475 -1.7928,7.1775 -0.4557,4.52625 1.4925,7.5375 5.61,9.49125 3.4143,1.62 7.0593,2.11875 10.7907,2.2275 5.3025,0.15 10.5225,-0.43875 15.7986,-1.5525 z m 7.0011,4.0425 c 2.4225,6.9825 5.19,13.68375 10.095,19.2075 1.4889,1.68 3.2889,3.24375 5.2464,4.305 4.005,2.175 7.8336,1.2975 11.5386,-2.08875 3.7464,-3.42 6.3525,-7.63125 8.4714,-12.15375 1.41,-3.0075 2.5725,-6.1275 3.8175,-9.13125 l -0.4764,-0.34125 c -6.1386,-2.52 -12.2736,-5.055 -18.4311,-7.52625 -0.4764,-0.195 -1.1889,-0.0936 -1.6875,0.12 -2.3364,0.9825 -4.6089,2.1075 -6.9564,3.0675 -3.795,1.54125 -7.6275,2.98875 -11.6175,4.54125 z m 65.745,-37.75125 c -5.58,4.2225 -10.9686,8.2725 -16.3125,12.38625 -0.3975,0.30375 -0.5961,1.0125 -0.6711,1.56375 -0.6375,4.82625 -1.2075,9.66 -1.845,14.48625 -0.234,1.73625 -0.6,3.4575 -0.945,5.3925 3.105,0.4275 5.9961,0.93375 8.9136,1.2 5.2239,0.48 10.4289,0.47625 15.5364,-1.06125 6.27,-1.8975 9.06,-6.41625 7.6125,-12.825 -1.8864,-8.35125 -6.99,-14.83875 -12.2889,-21.1425 z m -72.7161,-42.135 c -3.0414,-0.42375 -5.985,-0.94125 -8.9514,-1.2075 -5.2275,-0.46875 -10.4625,-0.5325 -15.5274,1.13625 -3.2655,1.08 -6.1644,2.73375 -7.3362,6.2775 -0.7515,2.27625 -0.621,4.605 -0.072,6.915 1.5042,6.32625 4.9995,11.595 8.8653,16.6575 1.0989,1.44 2.3025,2.78625 3.3525,4.04625 5.5875,-4.23375 11.0139,-8.32125 16.3989,-12.45375 0.3336,-0.255 0.5061,-0.8475 0.5625,-1.30875 0.3,-2.415 0.4725,-4.84875 0.8025,-7.26 0.5736,-4.1625 1.2336,-8.31 1.905,-12.8025 z m 72.5511,33.97875 c 4.4439,-5.09625 8.49,-10.30875 10.9125,-16.53 0.9414,-2.4225 1.5564,-5.05125 1.815,-7.635 0.3264,-3.27 -0.8361,-6.22125 -3.8361,-7.90125 -2.0475,-1.14 -4.2939,-2.1 -6.5625,-2.62875 -5.3625,-1.2525 -10.7964,-0.83625 -16.2,-0.1311 -1.8864,0.2439 -3.7539,0.61125 -5.6775,0.93 0.045,0.48375 0.06,0.73125 0.093,0.975 0.8661,6.22875 1.7061,12.4575 2.6436,18.675 0.114,0.7425 0.5814,1.6125 1.1625,2.07375 2.6289,2.06625 5.3964,3.9675 8.0439,6.015 2.5236,1.95 4.9686,4.0125 7.605,6.1575 z m -20.2086,4.00875 c -0.192,-4.25625 -0.4089,-8.5125 -0.5589,-12.77625 -0.042,-1.23 -0.5325,-1.99875 -1.5675,-2.7 -7.0986,-4.8375 -14.52,-9.09 -22.2486,-12.8325 -1.0725,-0.52125 -1.905,-0.48375 -2.9625,0.018 -7.7775,3.76125 -15.2325,8.06625 -22.365,12.9375 -0.8289,0.56625 -1.2789,1.17375 -1.35,2.1825 -0.6339,8.775 -0.6339,17.5425 0,26.31375 0.072,1.00875 0.51,1.62375 1.3386,2.19 7.1775,4.90125 14.685,9.21375 22.5,13.00875 1.0275,0.49875 1.8339,0.44625 2.8275,-0.0375 7.7364,-3.7275 15.1539,-7.99875 22.2525,-12.8325 1.0275,-0.6975 1.5339,-1.455 1.575,-2.6925 0.147,-4.26 0.3675,-8.51625 0.5589,-12.78 z m -23.9964,78 c -1.2186,0 -2.4411,0 -3.6561,0 l -0.3525,-0.255 c -4.3989,-0.76875 -7.6314,-3.38625 -10.4364,-6.64125 -4.6875,-5.43375 -7.53,-11.865 -9.825,-18.5625 -1.0011,-2.91375 -1.83,-5.8875 -2.7525,-8.90625 -0.4125,0.0825 -0.7986,0.1461 -1.185,0.2289 -4.8675,0.96 -9.705,2.13 -14.6061,2.8425 -6.1725,0.9 -12.3567,0.77625 -18.3405,-1.3425 -5.0892,-1.8 -8.5944,-5.12625 -9.687,-10.56 -0.6654,-3.31875 -0.105,-6.57375 0.9576,-9.735 2.1534,-6.40875 5.9124,-11.86875 10.2381,-16.95375 2.3583,-2.77125 4.8834,-5.4075 7.3518,-8.11875 -2.5752,-2.83125 -5.2365,-5.55 -7.6524,-8.47125 -4.9419,-5.9775 -9.2343,-12.31875 -10.8471,-20.13375 -1.3989,-6.77625 1.452,-12.96375 7.6773,-15.9375 1.632,-0.77625 3.4029,-1.35 5.1678,-1.75125 6.5505,-1.48875 13.1244,-0.96 19.6494,0.1914 3.78,0.65625 7.5111,1.59375 11.3361,2.4225 0.174,-0.585 0.3489,-1.15875 0.5064,-1.74 2.205,-8.0025 4.9236,-15.7875 9.6825,-22.68 2.5611,-3.72 5.5575,-7.00125 9.855,-8.78625 1.0611,-0.4425 2.175,-0.74625 3.2625,-1.11375 1.215,0 2.4375,0 3.6561,0 l 0.3525,0.2589 c 4.3989,0.7725 7.6314,3.38625 10.4364,6.64125 4.6836,5.43375 7.53,11.865 9.825,18.56625 1.0011,2.91375 1.83,5.8875 2.7636,8.93625 1.395,-0.3375 2.7564,-0.69 4.125,-1.02 8.385,-1.99125 16.815,-3.4275 25.455,-1.9425 4.6014,0.78375 8.88,2.33625 11.805,6.24375 3.5589,4.74375 3.18,9.975 1.4625,15.2325 -2.085,6.37875 -5.85,11.79375 -10.1286,16.845 -2.3814,2.82 -4.9539,5.47875 -7.455,8.23125 2.5725,2.835 5.2236,5.5575 7.6425,8.475 4.9761,6.0225 9.2925,12.40875 10.8825,20.2875 1.3236,6.55125 -1.4664,12.7125 -7.4364,15.66 -1.7061,0.84375 -3.5736,1.45875 -5.4336,1.87875 -6.555,1.4775 -13.1289,0.97125 -19.6575,-0.1875 -3.7764,-0.67125 -7.5075,-1.59375 -11.3289,-2.4225 -0.174,0.585 -0.3525,1.15875 -0.51,1.74 -2.2011,8.0025 -4.9236,15.7875 -9.6825,22.68375 -2.5611,3.71625 -5.5575,7.00125 -9.855,8.7825 -1.0611,0.4425 -2.175,0.75 -3.2625,1.11375" />
    <path
       inkscape:connector-curvature="0"
       id="path4544"
       style="fill:#4f4c4c;fill-opacity:1;fill-rule:evenodd;stroke:none"
       d="m 536.62319,195.2728 c -0.033,9.87375 -8.0925,17.8875 -17.9775,17.8725 -9.9411,-0.015 -17.9736,-8.13 -17.91,-18.09375 0.063,-9.85875 8.1564,-17.83875 18.0489,-17.79375 9.87,0.0489 17.865,8.12625 17.8386,18.015" />
  </g>
</svg>
