<?xml version="1.0" encoding="UTF-8" standalone="no"?>
<!-- Created with Inkscape (http://www.inkscape.org/) -->

<svg
   xmlns:dc="http://purl.org/dc/elements/1.1/"
   xmlns:cc="http://creativecommons.org/ns#"
   xmlns:rdf="http://www.w3.org/1999/02/22-rdf-syntax-ns#"
   xmlns:svg="http://www.w3.org/2000/svg"
   xmlns="http://www.w3.org/2000/svg"
   xmlns:sodipodi="http://sodipodi.sourceforge.net/DTD/sodipodi-0.dtd"
   xmlns:inkscape="http://www.inkscape.org/namespaces/inkscape"
   width="210mm"
   height="297mm"
   viewBox="0 0 744.09448819 1052.3622047"
   id="svg14573"
   version="1.1"
   inkscape:version="0.91 r13725"
   sodipodi:docname="atome_noir.svg">
  <defs
     id="defs14575" />
  <sodipodi:namedview
     id="base"
     pagecolor="#ffffff"
     bordercolor="#666666"
     borderopacity="1.0"
     inkscape:pageopacity="0.0"
     inkscape:pageshadow="2"
     inkscape:zoom="0.35"
     inkscape:cx="-136.42857"
     inkscape:cy="520"
     inkscape:document-units="px"
     inkscape:current-layer="layer1"
     showgrid="false"
     inkscape:window-width="1920"
     inkscape:window-height="1016"
     inkscape:window-x="0"
     inkscape:window-y="27"
     inkscape:window-maximized="1" />
  <metadata
     id="metadata14578">
    <rdf:RDF>
      <cc:Work
         rdf:about="">
        <dc:format>image/svg+xml</dc:format>
        <dc:type
           rdf:resource="http://purl.org/dc/dcmitype/StillImage" />
        <dc:title></dc:title>
      </cc:Work>
    </rdf:RDF>
  </metadata>
  <g
     inkscape:label="Layer 1"
     inkscape:groupmode="layer"
     id="layer1">
    <path
       inkscape:connector-curvature="0"
       id="path4740"
       style="fill:#231f20;fill-opacity:1;fill-rule:nonzero;stroke:none"
       d="m 490.34107,263.04434 c -0.825,28.54125 -11.9625,55.815 -31.575,77.0925 l -4.5,4.82625 -82.8,82.84125 -82.3875,-82.41375 -4.875,-5.29125 c -20.4375,-22.10625 -31.6875,-50.73375 -31.6875,-80.53125 0,-31.785 12.375,-61.66125 34.8375,-84.11625 22.4625,-22.4925 52.35,-34.84125 84.1125,-34.84125 56.5125,0 103.9125,39.6225 115.9875,92.54625 l 54.1875,0 c -12.7125,-82.54125 -84.075,-145.762497 -170.175,-145.762497 -47.55,0 -90.6,19.259997 -121.7625,50.411247 -31.125,31.155 -50.4,74.22375 -50.4,121.7625 0,45.0525 17.4375,85.9575 45.7875,116.6475 l -0.225,0.2139 4.8,4.8225 0.1125,0.1086 121.6875,121.68375 121.6125,-121.61625 0.15,-0.1086 0.1125,-0.1386 4.725,-4.75125 -0.225,-0.2139 c 27.6,-29.895 44.85,-69.495 45.7125,-113.17125 l -53.2125,0" />
    <path
       inkscape:connector-curvature="0"
       id="path4742"
       style="fill:#231f20;fill-opacity:1;fill-rule:nonzero;stroke:none"
       d="m 390.17857,370.38059 c 0,10.2375 -8.325,18.53625 -18.5625,18.53625 -10.2,0 -18.525,-8.29875 -18.525,-18.53625 0,-10.23375 8.325,-18.52875 18.525,-18.52875 10.2375,0 18.5625,8.295 18.5625,18.52875" />
    <path
       inkscape:connector-curvature="0"
       id="path4744"
       style="fill:#231f20;fill-opacity:1;fill-rule:nonzero;stroke:none"
       d="m 488.69107,241.04684 c 0.675,4.60875 1.0875,9.3075 1.2,14.07375 l 53.2125,0 c -0.075,-4.73625 -0.3,-9.43875 -0.7875,-14.07375 l -53.625,0" />
    <path
       inkscape:connector-curvature="0"
       id="path4746"
       style="fill:#231f20;fill-opacity:1;fill-rule:nonzero;stroke:none"
       d="m 376.45357,220.31309 c 6.5625,3.77625 12.7875,7.365 19.3875,11.1675 -1.125,-5.655 -2.2125,-10.9725 -3.3375,-16.5825 -5.5125,1.86 -10.575,3.57375 -16.05,5.415 z m -26.475,-5.4075 c -1.125,5.67375 -2.2125,10.98 -3.3375,16.5675 6.6,-3.79875 12.825,-7.38375 19.35,-11.145 -5.3625,-1.81875 -10.5,-3.5625 -16.0125,-5.4225 z m 0.1875,73.60875 c 5.2875,-1.785 10.4625,-3.525 15.825,-5.3475 -6.525,-3.76875 -12.75,-7.36125 -19.275,-11.115 0.7875,4.26 1.5375,8.23875 2.325,12.19875 0.2625,1.3275 0.7125,2.625 1.125,4.26375 z m 45.675,-16.5075 c -6.6375,3.82125 -12.825,7.4025 -19.35,11.16 5.4,1.82625 10.5375,3.57 16.0125,5.4225 1.1625,-5.6775 2.2125,-10.9725 3.3375,-16.5825 z m 5.2125,-9.06 c 4.35,-3.84 8.4375,-7.42125 12.7125,-11.2125 -4.35,-3.8325 -8.4,-7.3875 -12.7125,-11.17125 0,7.59375 0,14.7075 0,22.38375 z m -59.625,-22.39875 c -4.3125,3.81 -8.4,7.39125 -12.75,11.1975 4.3875,3.83625 8.4375,7.4025 12.75,11.17875 0,-7.63875 0,-14.76 0,-22.37625 z m 10.2375,-30.675 c 0.6,0.2439 1.0125,0.405 1.425,0.57375 5.625,2.29875 11.2875,4.575 16.875,6.92625 0.9375,0.39 1.65,0.375 2.55,-0.006 5.5875,-2.32875 11.175,-4.5825 16.725,-6.87 0.525,-0.195 1.0125,-0.40875 1.4625,-0.6075 -1.6875,-6.34875 -5.775,-14.4525 -9.9375,-19.15125 -1.5,-1.71375 -3.3375,-3.32625 -5.3625,-4.41 -4.0125,-2.175 -7.8375,-1.305 -11.5125,2.12625 -6.2625,5.835 -9.3375,13.47375 -12.225,21.42 z m -6.975,79.7325 c 0,-0.37875 0.0375,-0.5775 0,-0.77625 -0.8625,-6.12375 -1.8,-12.24 -2.55,-18.375 -0.15,-1.365 -0.675,-2.14125 -1.725,-2.9325 -4.35,-3.24375 -8.625,-6.59625 -12.9375,-9.9225 -0.75,-0.5775 -1.4625,-1.1925 -2.25,-1.86 -4.4625,5.09625 -8.5125,10.3125 -10.95,16.5225 -0.9,2.28 -1.5375,4.7475 -1.8,7.1775 -0.45,4.52625 1.5,7.5375 5.625,9.49125 3.4125,1.62 7.05,2.11875 10.8,2.2275 5.2875,0.15 10.5,-0.43875 15.7875,-1.5525 z m 7.0125,4.0425 c 2.4,6.9825 5.175,13.68375 10.0875,19.2075 1.5,1.68 3.3,3.24375 5.25,4.305 4.0125,2.175 7.8375,1.2975 11.55,-2.08875 3.7125,-3.42 6.3375,-7.63125 8.4375,-12.15375 1.425,-3.0075 2.5875,-6.1275 3.825,-9.13125 l -0.4875,-0.34125 c -6.1125,-2.52 -12.2625,-5.055 -18.4125,-7.52625 -0.4875,-0.195 -1.2,-0.0936 -1.6875,0.12 -2.325,0.9825 -4.6125,2.1075 -6.975,3.0675 -3.7875,1.54125 -7.6125,2.98875 -11.5875,4.54125 z m 65.7375,-37.75125 c -5.5875,4.2225 -10.9875,8.2725 -16.3125,12.38625 -0.4125,0.30375 -0.6,1.0125 -0.675,1.56375 -0.6375,4.82625 -1.2,9.66 -1.8375,14.48625 -0.225,1.73625 -0.6,3.4575 -0.9375,5.3925 3.075,0.4275 5.9625,0.93375 8.8875,1.2 5.25,0.48 10.425,0.47625 15.5625,-1.06125 6.2625,-1.8975 9.0375,-6.41625 7.6125,-12.825 -1.9125,-8.35125 -7.0125,-14.83875 -12.3,-21.1425 z m -72.7125,-42.135 c -3.0375,-0.42375 -6,-0.94125 -8.9625,-1.2075 -5.2125,-0.46875 -10.4625,-0.5325 -15.525,1.13625 -3.2625,1.08 -6.15,2.73375 -7.35,6.2775 -0.75,2.27625 -0.6,4.605 -0.075,6.915 1.5375,6.32625 5.025,11.595 8.8875,16.6575 1.0875,1.44 2.2875,2.78625 3.3375,4.04625 5.5875,-4.23375 11.025,-8.32125 16.425,-12.45375 0.3,-0.255 0.4875,-0.8475 0.5625,-1.30875 0.3,-2.415 0.45,-4.84875 0.7875,-7.26 0.5625,-4.1625 1.2375,-8.31 1.9125,-12.8025 z m 72.5625,33.97875 c 4.425,-5.09625 8.475,-10.30875 10.875,-16.53 0.975,-2.4225 1.575,-5.05125 1.8375,-7.635 0.3375,-3.27 -0.825,-6.22125 -3.825,-7.90125 -2.0625,-1.14 -4.3125,-2.1 -6.5625,-2.62875 -5.3625,-1.2525 -10.8,-0.83625 -16.2,-0.1311 -1.9125,0.2436 -3.7875,0.61125 -5.7,0.93 0.0375,0.48375 0.075,0.73125 0.1125,0.975 0.8625,6.22875 1.6875,12.4575 2.625,18.675 0.1125,0.7425 0.6,1.6125 1.1625,2.07375 2.625,2.06625 5.4,3.9675 8.0625,6.015 2.5125,1.95 4.95,4.0125 7.6125,6.1575 z m -20.2125,4.00875 c -0.1875,-4.25625 -0.4125,-8.5125 -0.5625,-12.77625 -0.0375,-1.23 -0.5625,-1.99875 -1.575,-2.7 -7.0875,-4.8375 -14.5125,-9.09 -22.2375,-12.8325 -1.0875,-0.52125 -1.9125,-0.48375 -2.9625,0.018 -7.8,3.76125 -15.2625,8.06625 -22.3875,12.9375 -0.825,0.56625 -1.275,1.17375 -1.35,2.1825 -0.6375,8.775 -0.6375,17.5425 0,26.31375 0.075,1.00875 0.525,1.62375 1.35,2.19 7.1625,4.90125 14.7,9.21375 22.5,13.00875 1.0125,0.49875 1.8375,0.44625 2.8125,-0.0375 7.7625,-3.7275 15.15,-7.99875 22.275,-12.8325 1.0125,-0.6975 1.5375,-1.455 1.575,-2.6925 0.15,-4.26 0.375,-8.51625 0.5625,-12.78 z m -24,78 c -1.2375,0 -2.4375,0 -3.675,0 l -0.3375,-0.255 c -4.3875,-0.76875 -7.65,-3.38625 -10.4625,-6.64125 -4.6875,-5.43375 -7.5,-11.865 -9.7875,-18.5625 -1.0125,-2.91375 -1.8375,-5.8875 -2.775,-8.90625 -0.4125,0.0825 -0.7875,0.1464 -1.2,0.2289 -4.8375,0.96 -9.675,2.13 -14.5875,2.8425 -6.1875,0.9 -12.3375,0.77625 -18.3375,-1.3425 -5.1,-1.8 -8.5875,-5.12625 -9.675,-10.56 -0.675,-3.31875 -0.1125,-6.57375 0.9375,-9.735 2.175,-6.40875 5.925,-11.86875 10.2375,-16.95375 2.3625,-2.77125 4.875,-5.4075 7.35,-8.11875 -2.55,-2.83125 -5.2125,-5.55 -7.65,-8.47125 -4.95,-5.9775 -9.225,-12.31875 -10.8375,-20.13375 -1.3875,-6.77625 1.4625,-12.96375 7.6875,-15.9375 1.6125,-0.77625 3.375,-1.35 5.1375,-1.75125 6.5625,-1.48875 13.125,-0.96 19.65,0.1914 3.7875,0.65625 7.5375,1.59375 11.3625,2.4225 0.15,-0.585 0.3375,-1.15875 0.4875,-1.74 2.2125,-8.0025 4.95,-15.7875 9.675,-22.68 2.5875,-3.72 5.5875,-7.00125 9.8625,-8.78625 1.05,-0.4425 2.175,-0.74625 3.2625,-1.11375 1.2375,0 2.4375,0 3.675,0 l 0.3375,0.2589 c 4.3875,0.7725 7.65,3.38625 10.425,6.64125 4.6875,5.43375 7.5375,11.865 9.825,18.56625 1.0125,2.91375 1.8375,5.8875 2.775,8.93625 1.3875,-0.3375 2.775,-0.69 4.125,-1.02 8.4,-1.99125 16.8,-3.4275 25.4625,-1.9425 4.6125,0.78375 8.8875,2.33625 11.8125,6.24375 3.5625,4.74375 3.15,9.975 1.4625,15.2325 -2.1,6.37875 -5.85,11.79375 -10.125,16.845 -2.4,2.82 -4.95,5.47875 -7.4625,8.23125 2.55,2.835 5.2125,5.5575 7.65,8.475 4.95,6.0225 9.2625,12.40875 10.875,20.2875 1.3125,6.55125 -1.4625,12.7125 -7.425,15.66 -1.725,0.84375 -3.6,1.45875 -5.4375,1.87875 -6.5625,1.4775 -13.1625,0.97125 -19.6875,-0.1875 -3.75,-0.67125 -7.5,-1.59375 -11.325,-2.4225 -0.15,0.585 -0.3375,1.15875 -0.4875,1.74 -2.2125,8.0025 -4.95,15.7875 -9.675,22.68375 -2.5875,3.71625 -5.5875,7.00125 -9.8625,8.7825 -1.0875,0.4425 -2.175,0.75 -3.2625,1.11375" />
    <path
       inkscape:connector-curvature="0"
       id="path4748"
       style="fill:#231f20;fill-opacity:1;fill-rule:evenodd;stroke:none"
       d="m 389.20357,251.82059 c -0.0375,9.87375 -8.1,17.8875 -18,17.8725 -9.9375,-0.015 -17.9625,-8.13 -17.925,-18.09375 0.075,-9.85875 8.175,-17.83875 18.075,-17.79375 9.8625,0.0486 17.85,8.12625 17.85,18.015" />
  </g>
</svg>
