<?xml version="1.0" encoding="UTF-8" standalone="no"?>
<!-- Created with Inkscape (http://www.inkscape.org/) -->

<svg
   xmlns:dc="http://purl.org/dc/elements/1.1/"
   xmlns:cc="http://creativecommons.org/ns#"
   xmlns:rdf="http://www.w3.org/1999/02/22-rdf-syntax-ns#"
   xmlns:svg="http://www.w3.org/2000/svg"
   xmlns="http://www.w3.org/2000/svg"
   xmlns:sodipodi="http://sodipodi.sourceforge.net/DTD/sodipodi-0.dtd"
   xmlns:inkscape="http://www.inkscape.org/namespaces/inkscape"
   width="210mm"
   height="297mm"
   viewBox="0 0 744.09448819 1052.3622047"
   id="svg15758"
   version="1.1"
   inkscape:version="0.91 r13725"
   sodipodi:docname="fusee_blanc.svg">
  <defs
     id="defs15760" />
  <sodipodi:namedview
     id="base"
     pagecolor="#ffffff"
     bordercolor="#666666"
     borderopacity="1.0"
     inkscape:pageopacity="0.0"
     inkscape:pageshadow="2"
     inkscape:zoom="0.35"
     inkscape:cx="-139.28571"
     inkscape:cy="520"
     inkscape:document-units="px"
     inkscape:current-layer="layer2"
     showgrid="false"
     inkscape:window-width="1920"
     inkscape:window-height="1016"
     inkscape:window-x="0"
     inkscape:window-y="27"
     inkscape:window-maximized="1" />
  <metadata
     id="metadata15763">
    <rdf:RDF>
      <cc:Work
         rdf:about="">
        <dc:format>image/svg+xml</dc:format>
        <dc:type
           rdf:resource="http://purl.org/dc/dcmitype/StillImage" />
        <dc:title></dc:title>
      </cc:Work>
    </rdf:RDF>
  </metadata>
  <g
     inkscape:groupmode="layer"
     id="layer2"
     inkscape:label="Layer 2">
    <rect
       style="display:inline;opacity:1;fill:#000700;fill-opacity:1;stroke:#000000;stroke-opacity:1"
       id="rect16320"
       width="760"
       height="1060"
       x="-5.7142768"
       y="-3.3520792" />
  </g>
  <g
     inkscape:label="Layer 1"
     inkscape:groupmode="layer"
     id="layer1"
     style="display:inline">
    <path
       inkscape:connector-curvature="0"
       id="path4690"
       style="fill:#ffffff;fill-opacity:1;fill-rule:nonzero;stroke:none"
       d="m 476.05729,271.61593 c -0.825,28.5375 -11.9625,55.815 -31.575,77.0925 l -4.5,4.82625 -82.7925,82.83755 -82.41375,-82.41005 -4.86375,-5.29125 c -20.43375,-22.10625 -31.68375,-50.7375 -31.68375,-80.53125 0,-31.785 12.38625,-61.6575 34.84125,-84.11625 22.455,-22.4925 52.33125,-34.84125 84.12,-34.84125 56.52,0 103.905,39.6225 115.98,92.54625 l 54.1875,0 c -12.7125,-82.54125 -84.075,-145.762501 -170.1675,-145.762501 -47.5425,0 -90.61125,19.263751 -121.75875,50.411251 -31.15125,31.155 -50.415,74.22 -50.415,121.7625 0,45.05625 17.45625,85.9575 45.79875,116.64755 l -0.2439,0.2136 4.8225,4.8225 0.105,0.1086 121.69125,121.6836 121.605,-121.6124 0.15,-0.1125 0.1125,-0.1386 4.725,-4.7512 -0.225,-0.2136 c 27.6,-29.89505 44.85,-69.49505 45.7125,-113.1713 l -53.2125,0" />
    <path
       inkscape:connector-curvature="0"
       id="path4692"
       style="fill:#ffffff;fill-opacity:1;fill-rule:nonzero;stroke:none"
       d="m 375.87979,378.95223 c 0,10.2375 -8.29875,18.5325 -18.52875,18.5325 -10.23375,0 -18.5325,-8.295 -18.5325,-18.5325 0,-10.2338 8.29875,-18.5288 18.5325,-18.5288 10.23,0 18.52875,8.295 18.52875,18.5288" />
    <path
       inkscape:connector-curvature="0"
       id="path4694"
       style="fill:#ffffff;fill-opacity:1;fill-rule:nonzero;stroke:none"
       d="m 474.40729,249.61843 c 0.675,4.60875 1.0875,9.3075 1.2,14.07375 l 53.2125,0 c -0.075,-4.73625 -0.3,-9.43875 -0.7875,-14.07375 l -53.625,0" />
    <path
       inkscape:connector-curvature="0"
       id="path4724"
       style="fill:#ffffff;fill-opacity:1;fill-rule:evenodd;stroke:none"
       d="m 382.01479,248.85718 c 5.91,-0.0525 10.85625,-5.0475 10.78875,-10.89 -0.075,-5.91375 -5.0775,-10.86375 -10.905,-10.78875 -5.92875,0.0786 -10.83375,5.04 -10.7775,10.8975 0.06,5.92125 5.025,10.8375 10.89375,10.78125 z m -43.305,59.72625 c -2.1375,-1.10625 -3.885,-0.42 -5.63625,0.45375 -1.275,0.63375 -2.65875,1.06125 -3.90375,1.74375 -1.46625,0.81 -2.90625,0.7725 -4.1475,-0.165 -2.94375,-2.22 -5.98125,-4.3725 -8.59875,-6.94875 -2.54625,-2.51625 -4.665,-5.4825 -6.8625,-8.33625 -1.1025,-1.43625 -1.2075,-3.04125 -0.2775,-4.7475 0.87375,-1.60125 1.45125,-3.3525 2.2425,-4.99875 0.46875,-0.9675 0.5775,-1.85625 0.3525,-2.9325 -0.2139,-0.98625 -0.57375,-1.365 -1.5525,-1.56375 -5.67375,-1.15875 -11.3325,-2.39625 -16.995,-3.6 -1.8,-0.38625 -1.91625,-0.6825 -0.80625,-2.115 3.705,-4.7475 7.43625,-9.4725 11.08875,-14.26125 0.9075,-1.18125 1.8825,-1.66875 3.38625,-1.635 6.87,0.1575 13.74,0.1875 20.61,0.315 0.93375,0.015 1.45875,-0.37125 1.99875,-1.03875 10.51125,-12.7875 21.06,-25.54125 32.52,-37.5075 7.9125,-8.27625 17.3625,-14.17875 28.0275,-18.19875 10.0875,-3.80625 20.53875,-5.8425 31.33875,-6.12375 0.4875,-0.015 0.9375,-0.003 1.65,-0.003 -0.15,2.67 -0.15,5.20125 -0.4125,7.71 -0.9,8.40375 -2.625,16.6275 -5.5875,24.57 -4.14375,11.11125 -10.2525,20.925 -18.9,29.12625 -11.80125,11.1825 -24.31125,21.5325 -36.84375,31.86 -0.72375,0.59625 -1.04625,1.17375 -1.03125,2.1225 0.1275,7.05 0.1764,14.1 0.3075,21.14625 0.021,1.245 -0.40125,2.08125 -1.37625,2.83125 -4.9125,3.78375 -9.78375,7.62 -14.6775,11.43 -1.3125,1.0275 -1.605,0.93 -1.965,-0.73125 -1.33875,-6.1761 -2.65125,-12.3636 -3.94875,-18.4011" />
    <path
       inkscape:connector-curvature="0"
       id="path4726"
       style="fill:#ffffff;fill-opacity:1;fill-rule:evenodd;stroke:none"
       d="m 301.99729,295.15093 c 0.2325,0.36 0.39375,0.67875 0.6225,0.9375 0.81,0.9225 0.63375,1.6725 -0.0525,2.67375 -3.55125,5.175 -4.98,11.08125 -5.6025,17.21625 -0.2064,2.03625 -0.1611,4.095 -0.2664,6.1425 -0.045,0.85875 0.2961,1.17 1.15875,1.17 8.565,-0.003 16.78125,-1.30875 24.05625,-6.27375 0.30375,-0.21 0.90375,-0.1875 1.27875,-0.0489 0.56625,0.2175 1.05375,0.62625 1.6575,1.00875 -3.54,4.7625 -8.04,8.1 -13.37625,10.40625 -6.32625,2.73375 -18.80625,4.69875 -23.5125,3.645 -0.97125,-11.14125 2.05875,-28.3725 14.03625,-36.8775" />
  </g>
</svg>
