<?xml version="1.0" encoding="UTF-8" standalone="no"?>
<!-- Created with Inkscape (http://www.inkscape.org/) -->

<svg
   xmlns:dc="http://purl.org/dc/elements/1.1/"
   xmlns:cc="http://creativecommons.org/ns#"
   xmlns:rdf="http://www.w3.org/1999/02/22-rdf-syntax-ns#"
   xmlns:svg="http://www.w3.org/2000/svg"
   xmlns="http://www.w3.org/2000/svg"
   xmlns:sodipodi="http://sodipodi.sourceforge.net/DTD/sodipodi-0.dtd"
   xmlns:inkscape="http://www.inkscape.org/namespaces/inkscape"
   width="189.01596mm"
   height="200.30521mm"
   viewBox="0 0 669.74159 709.74285"
   id="svg5536"
   version="1.1"
   inkscape:version="0.91 r13725"
   sodipodi:docname="logo_YT_transp.svg"
   inkscape:export-filename="/home/wilder6/Documents/Projet2_M-TourismeLudique/Github_project2/orleans-0916-tourismeludique/image/logo_YT_transp.png"
   inkscape:export-xdpi="90"
   inkscape:export-ydpi="90">
  <defs
     id="defs5538">
    <clipPath
       clipPathUnits="userSpaceOnUse"
       id="clipPath4395">
      <path
         d="m 128.299,463.964 -3.669,-15.348 -0.377,0 -3.846,15.348 -5.977,0 7.061,-23.176 0,-15.22 5.929,0 0,15.931 6.902,22.465 -6.023,0 z"
         id="path4397"
         inkscape:connector-curvature="0" />
    </clipPath>
    <clipPath
       clipPathUnits="userSpaceOnUse"
       id="clipPath4439">
      <path
         d="m 163.573,453.892 0,-21.497 c -0.501,-0.621 -1.037,-1.128 -1.625,-1.525 l 0,0 c -0.596,-0.398 -1.085,-0.597 -1.471,-0.597 l 0,0 c -0.497,0 -0.85,0.148 -1.068,0.451 l 0,0 c -0.222,0.297 -0.334,0.781 -0.334,1.457 l 0,0 0,21.711 -5.261,0 0,-23.674 c 0,-1.686 0.302,-2.949 0.918,-3.795 l 0,0 c 0.62,-0.838 1.538,-1.26 2.754,-1.26 l 0,0 c 0.99,0 2.007,0.301 3.059,0.902 l 0,0 c 1.049,0.6 2.059,1.483 3.028,2.631 l 0,0 0,-3.128 5.266,0 0,28.324 -5.266,0 z"
         id="path4441"
         inkscape:connector-curvature="0" />
    </clipPath>
    <clipPath
       clipPathUnits="userSpaceOnUse"
       id="clipPath4427">
      <path
         d="m 0,925 841.89,0 0,-925 L 0,0 0,925 Z"
         id="path4429"
         inkscape:connector-curvature="0" />
    </clipPath>
    <clipPath
       clipPathUnits="userSpaceOnUse"
       id="clipPath4417">
      <path
         d="m 136.183,452.661 c -1.42,-1.303 -2.134,-3.051 -2.134,-5.24 l 0,0 0.008,-14.689 c 0,-2.403 0.687,-4.319 2.07,-5.741 l 0,0 c 1.378,-1.426 3.226,-2.139 5.531,-2.139 l 0,0 c 2.388,0 4.268,0.692 5.635,2.067 l 0,0 c 1.358,1.383 2.046,3.283 2.046,5.715 l 0,0 0,14.623 c 0,2.162 -0.695,3.926 -2.082,5.293 l 0,0 c -1.395,1.371 -3.183,2.058 -5.36,2.058 l 0,0 c -2.393,0 -4.301,-0.652 -5.714,-1.947 m 3.854,-22.266 c -0.378,0.426 -0.564,1.03 -0.564,1.809 l 0,0 0,15.428 c 0,0.619 0.202,1.119 0.603,1.5 l 0,0 c 0.401,0.375 0.922,0.565 1.566,0.565 l 0,0 c 0.692,0 1.255,-0.19 1.681,-0.565 l 0,0 c 0.429,-0.381 0.647,-0.881 0.647,-1.5 l 0,0 0,-15.428 c 0,-0.762 -0.207,-1.357 -0.623,-1.791 l 0,0 c -0.425,-0.434 -0.993,-0.652 -1.705,-0.652 l 0,0 c -0.696,0 -1.228,0.215 -1.605,0.634"
         id="path4419"
         inkscape:connector-curvature="0" />
    </clipPath>
    <clipPath
       clipPathUnits="userSpaceOnUse"
       id="clipPath4405">
      <path
         d="m 0,925 841.89,0 0,-925 L 0,0 0,925 Z"
         id="path4407"
         inkscape:connector-curvature="0" />
    </clipPath>
    <clipPath
       clipPathUnits="userSpaceOnUse"
       id="clipPath4373">
      <path
         d="m 144.566,418.296 -1.533,0 c -9.771,0 -19.364,-0.186 -28.755,-0.576 l 0,0 c -6.918,0 -12.525,-5.547 -12.525,-12.387 l 0,0 c -0.418,-5.42 -0.599,-10.84 -0.583,-16.252 l 0,0 c -0.016,-5.42 0.165,-10.832 0.583,-16.261 l 0,0 c 0,-6.835 5.607,-12.382 12.525,-12.382 l 0,0 c 9.875,-0.422 19.985,-0.596 30.288,-0.579 l 0,0 c 10.301,-0.017 20.406,0.157 30.281,0.579 l 0,0 c 6.921,0 12.533,5.547 12.533,12.382 l 0,0 c 0.417,5.429 0.593,10.841 0.584,16.261 l 0,0 c 0.009,5.412 -0.167,10.832 -0.584,16.252 l 0,0 c 0,6.84 -5.612,12.387 -12.533,12.387 l 0,0 c -9.387,0.39 -18.975,0.576 -28.75,0.576 l 0,0 -1.531,0 z"
         id="path4375"
         inkscape:connector-curvature="0" />
    </clipPath>
    <clipPath
       clipPathUnits="userSpaceOnUse"
       id="clipPath4357">
      <path
         d="m 0,925 841.89,0 0,-925 L 0,0 0,925 Z"
         id="path4359"
         inkscape:connector-curvature="0" />
    </clipPath>
    <clipPath
       clipPathUnits="userSpaceOnUse"
       id="clipPath4347">
      <path
         d="m 165.843,451.909 0,-21.496 c -0.501,-0.621 -1.038,-1.129 -1.625,-1.525 l 0,0 c -0.597,-0.399 -1.085,-0.598 -1.471,-0.598 l 0,0 c -0.497,0 -0.851,0.149 -1.068,0.451 l 0,0 c -0.223,0.297 -0.334,0.781 -0.334,1.457 l 0,0 0,21.711 -5.261,0 0,-23.674 c 0,-1.685 0.302,-2.949 0.917,-3.795 l 0,0 c 0.62,-0.838 1.538,-1.259 2.754,-1.259 l 0,0 c 0.99,0 2.006,0.301 3.059,0.902 l 0,0 c 1.049,0.6 2.059,1.482 3.029,2.631 l 0,0 0,-3.129 5.265,0 0,28.324 -5.265,0 z"
         id="path4349"
         inkscape:connector-curvature="0" />
    </clipPath>
    <clipPath
       clipPathUnits="userSpaceOnUse"
       id="clipPath4335">
      <path
         d="m 0,925 841.89,0 0,-925 L 0,0 0,925 Z"
         id="path4337"
         inkscape:connector-curvature="0" />
    </clipPath>
    <clipPath
       clipPathUnits="userSpaceOnUse"
       id="clipPath4325">
      <path
         d="m 138.452,450.679 c -1.419,-1.303 -2.134,-3.051 -2.134,-5.24 l 0,0 0.009,-14.69 c 0,-2.402 0.686,-4.318 2.07,-5.74 l 0,0 c 1.377,-1.426 3.226,-2.139 5.531,-2.139 l 0,0 c 2.388,0 4.267,0.692 5.635,2.067 l 0,0 c 1.358,1.382 2.046,3.283 2.046,5.715 l 0,0 0,14.622 c 0,2.163 -0.696,3.926 -2.083,5.293 l 0,0 c -1.394,1.372 -3.182,2.059 -5.36,2.059 l 0,0 c -2.393,0 -4.3,-0.652 -5.714,-1.947 m 3.854,-22.266 c -0.377,0.426 -0.564,1.029 -0.564,1.809 l 0,0 0,15.427 c 0,0.62 0.202,1.119 0.604,1.501 l 0,0 c 0.401,0.374 0.921,0.564 1.565,0.564 l 0,0 c 0.693,0 1.256,-0.19 1.682,-0.564 l 0,0 c 0.428,-0.382 0.647,-0.881 0.647,-1.501 l 0,0 0,-15.427 c 0,-0.762 -0.207,-1.358 -0.624,-1.791 l 0,0 c -0.424,-0.434 -0.993,-0.653 -1.705,-0.653 l 0,0 c -0.695,0 -1.228,0.215 -1.605,0.635"
         id="path4327"
         inkscape:connector-curvature="0" />
    </clipPath>
    <clipPath
       clipPathUnits="userSpaceOnUse"
       id="clipPath4313">
      <path
         d="m 0,925 841.89,0 0,-925 L 0,0 0,925 Z"
         id="path4315"
         inkscape:connector-curvature="0" />
    </clipPath>
    <clipPath
       clipPathUnits="userSpaceOnUse"
       id="clipPath4303">
      <path
         d="m 130.568,461.982 -3.669,-15.348 -0.376,0 -3.848,15.348 -5.976,0 7.062,-23.176 0,-15.221 5.928,0 0,15.932 6.903,22.465 -6.024,0 z"
         id="path4305"
         inkscape:connector-curvature="0" />
    </clipPath>
    <clipPath
       clipPathUnits="userSpaceOnUse"
       id="clipPath4291">
      <path
         d="m 0,925 841.89,0 0,-925 L 0,0 0,925 Z"
         id="path4293"
         inkscape:connector-curvature="0" />
    </clipPath>
    <clipPath
       clipPathUnits="userSpaceOnUse"
       id="clipPath4281">
      <path
         d="m 146.836,416.314 -1.535,0 c -9.77,0 -19.362,-0.186 -28.753,-0.577 l 0,0 c -6.918,0 -12.525,-5.547 -12.525,-12.387 l 0,0 c -0.418,-5.42 -0.6,-10.839 -0.583,-16.251 l 0,0 c -0.017,-5.421 0.165,-10.832 0.583,-16.262 l 0,0 c 0,-6.834 5.607,-12.381 12.525,-12.381 l 0,0 c 9.875,-0.422 19.984,-0.595 30.288,-0.58 l 0,0 c 10.3,-0.015 20.406,0.158 30.28,0.58 l 0,0 c 6.922,0 12.534,5.547 12.534,12.381 l 0,0 c 0.416,5.43 0.592,10.841 0.583,16.262 l 0,0 c 0.009,5.412 -0.167,10.831 -0.583,16.251 l 0,0 c 0,6.84 -5.612,12.387 -12.534,12.387 l 0,0 c -9.386,0.391 -18.974,0.577 -28.75,0.577 l 0,0 -1.53,0 z"
         id="path4283"
         inkscape:connector-curvature="0" />
    </clipPath>
  </defs>
  <sodipodi:namedview
     id="base"
     pagecolor="#ffffff"
     bordercolor="#666666"
     borderopacity="1.0"
     inkscape:pageopacity="0.0"
     inkscape:pageshadow="2"
     inkscape:zoom="0.76"
     inkscape:cx="-21.771935"
     inkscape:cy="486.03339"
     inkscape:document-units="px"
     inkscape:current-layer="layer1"
     showgrid="false"
     fit-margin-top="0"
     fit-margin-left="0"
     fit-margin-right="0"
     fit-margin-bottom="0"
     inkscape:window-width="1920"
     inkscape:window-height="1016"
     inkscape:window-x="0"
     inkscape:window-y="27"
     inkscape:window-maximized="1" />
  <metadata
     id="metadata5541">
    <rdf:RDF>
      <cc:Work
         rdf:about="">
        <dc:format>image/svg+xml</dc:format>
        <dc:type
           rdf:resource="http://purl.org/dc/dcmitype/StillImage" />
        <dc:title />
      </cc:Work>
    </rdf:RDF>
  </metadata>
  <g
     inkscape:label="Layer 1"
     inkscape:groupmode="layer"
     id="layer1"
     transform="translate(-42.272057,-23.205054)">
    <g
       transform="matrix(3.9378265,0,0,-4.1729942,-192.13494,2096.9749)"
       id="g4287">
      <g
         id="g4289"
         clip-path="url(#clipPath4291)">
        <g
           id="g4295"
           transform="translate(130.5684,461.9814)">
          <path
             d="m 0,0 -3.669,-15.348 -0.377,0 L -7.893,0 l -5.976,0 7.061,-23.176 0,-15.22 5.929,0 0,15.931 L 6.023,0 0,0 Z"
             style="fill:#3b3c3c;fill-opacity:1;fill-rule:nonzero;stroke:none"
             id="path4297"
             inkscape:connector-curvature="0" />
        </g>
      </g>
    </g>
    <g
       transform="matrix(3.9378265,0,0,-4.1729942,-192.13494,2096.9749)"
       id="g4299">
      <g
         id="g4301"
         clip-path="url(#clipPath4303)">
        <path
           d="m 136.592,423.585 -19.893,0 0,38.396 19.893,0 0,-38.396 z"
           style="fill:#3b3c3c;fill-opacity:1;fill-rule:nonzero;stroke:none"
           id="path4307"
           inkscape:connector-curvature="0" />
      </g>
    </g>
    <g
       transform="matrix(3.9378265,0,0,-4.1729942,-192.13494,2096.9749)"
       id="g4309">
      <g
         id="g4311"
         clip-path="url(#clipPath4313)">
        <g
           id="g4317"
           transform="translate(138.4521,450.6787)">
          <path
             d="m 0,0 c -1.419,-1.303 -2.134,-3.051 -2.134,-5.24 l 0.008,-14.69 c 0,-2.402 0.688,-4.318 2.07,-5.74 1.378,-1.426 3.227,-2.139 5.532,-2.139 2.387,0 4.267,0.692 5.634,2.067 1.359,1.383 2.046,3.283 2.046,5.715 l 0,14.623 c 0,2.162 -0.695,3.925 -2.082,5.293 C 9.68,1.26 7.892,1.947 5.714,1.947 3.321,1.947 1.414,1.295 0,0 m 3.854,-22.266 c -0.377,0.426 -0.564,1.03 -0.564,1.809 l 0,15.428 c 0,0.619 0.202,1.119 0.604,1.5 0.401,0.375 0.921,0.564 1.565,0.564 0.692,0 1.256,-0.189 1.682,-0.564 0.428,-0.381 0.647,-0.881 0.647,-1.5 l 0,-15.428 c 0,-0.762 -0.207,-1.357 -0.624,-1.791 -0.425,-0.434 -0.993,-0.652 -1.705,-0.652 -0.695,0 -1.228,0.214 -1.605,0.634"
             style="fill:#3b3c3c;fill-opacity:1;fill-rule:nonzero;stroke:none"
             id="path4319"
             inkscape:connector-curvature="0" />
        </g>
      </g>
    </g>
    <g
       transform="matrix(3.9378265,0,0,-4.1729942,-192.13494,2096.9749)"
       id="g4321">
      <g
         id="g4323"
         clip-path="url(#clipPath4325)">
        <path
           d="m 151.608,422.87 -15.29,0 0,29.756 15.29,0 0,-29.756 z"
           style="fill:#3b3c3c;fill-opacity:1;fill-rule:nonzero;stroke:none"
           id="path4329"
           inkscape:connector-curvature="0" />
      </g>
    </g>
    <g
       transform="matrix(3.9378265,0,0,-4.1729942,-192.13494,2096.9749)"
       id="g4331">
      <g
         id="g4333"
         clip-path="url(#clipPath4335)">
        <g
           id="g4339"
           transform="translate(165.8428,451.9092)">
          <path
             d="m 0,0 0,-21.496 c -0.501,-0.621 -1.037,-1.129 -1.625,-1.525 -0.597,-0.399 -1.085,-0.598 -1.471,-0.598 -0.497,0 -0.85,0.148 -1.068,0.451 -0.223,0.297 -0.334,0.781 -0.334,1.457 l 0,21.711 -5.261,0 0,-23.674 c 0,-1.685 0.302,-2.949 0.917,-3.795 0.62,-0.838 1.538,-1.26 2.754,-1.26 0.99,0 2.007,0.301 3.06,0.903 1.049,0.599 2.058,1.482 3.028,2.631 l 0,-3.129 5.266,0 L 5.266,0 0,0 Z"
             style="fill:#3b3c3c;fill-opacity:1;fill-rule:nonzero;stroke:none"
             id="path4341"
             inkscape:connector-curvature="0" />
        </g>
      </g>
    </g>
    <g
       transform="matrix(3.9378265,0,0,-4.1729942,-192.13494,2096.9749)"
       id="g4343">
      <g
         id="g4345"
         clip-path="url(#clipPath4347)">
        <path
           d="m 171.108,423.181 -15.024,0 0,28.729 15.024,0 0,-28.729 z"
           style="fill:#3b3c3c;fill-opacity:1;fill-rule:nonzero;stroke:none"
           id="path4351"
           inkscape:connector-curvature="0" />
      </g>
    </g>
    <g
       id="g5088">
      <g
         transform="matrix(3.9378265,0,0,-4.1729942,386.07939,359.70095)"
         id="g4273">
        <path
           style="fill:#3b3c3c;fill-opacity:1;fill-rule:nonzero;stroke:none"
           d="M 337.76758 336.49609 C 299.29108 336.49609 261.51919 337.27292 224.53906 338.90039 C 197.29718 338.90039 175.2168 362.04656 175.2168 390.58984 C 173.57472 413.20747 172.85493 435.82591 172.92188 458.41016 C 172.85493 481.02778 173.57472 503.61213 175.2168 526.27148 C 175.2168 554.78973 197.29718 577.93359 224.53906 577.93359 C 263.4251 579.6946 303.23128 580.42002 343.80664 580.35742 C 384.37019 580.42002 424.15889 579.6946 463.04492 577.93359 C 490.30256 577.93359 512.39844 554.78973 512.39844 526.27148 C 514.04051 503.61213 514.73271 481.02778 514.69727 458.41016 C 514.73271 435.82591 514.04051 413.20747 512.39844 390.58984 C 512.39844 362.04656 490.30256 338.90039 463.04492 338.90039 C 426.08842 337.27292 388.32822 336.49609 349.83203 336.49609 L 343.80664 336.49609 L 337.76758 336.49609 z M 224.89453 399.53711 L 277.10547 399.53711 L 277.10547 415.5332 L 259.50195 415.5332 L 259.50195 509.69531 L 242.49609 509.69531 L 242.49609 415.5332 L 224.89453 415.5332 L 224.89453 399.53711 z M 334.76758 399.53711 L 350.01758 399.53711 L 350.01758 435.00195 C 352.06013 432.51762 354.21544 430.63389 356.49609 429.35156 C 358.78536 428.05202 361.09684 427.41406 363.44922 427.41406 C 368.22569 427.41406 371.88358 429.14692 374.40234 432.61523 C 376.90963 436.08642 378.17383 441.13985 378.17383 447.76953 L 378.17383 492.85742 C 378.17383 498.62648 377.00045 503.04854 374.63086 506.11523 C 372.24693 509.19627 368.84036 510.71875 364.35938 510.71875 C 361.40743 510.71875 358.7853 510.1248 356.44727 508.91992 C 354.14366 507.73226 351.99988 505.91726 350.01758 503.44727 L 350.01758 509.69531 L 334.76758 509.69531 L 334.76758 399.53711 z M 412.50977 426.38867 C 419.41772 426.38867 424.73419 428.43699 428.44922 432.55078 C 432.16425 436.65883 434.00977 442.56236 434.00977 450.2793 L 434.00977 470.96094 L 405.12305 470.96094 L 405.12305 486.30078 C 405.12305 490.56661 405.60165 493.52924 406.61719 495.18164 C 407.60977 496.83404 409.30863 497.65234 411.70117 497.65234 C 414.21133 497.65234 415.97616 496.95085 416.96875 495.55664 C 417.97281 494.15669 418.46094 491.09159 418.46094 486.30078 L 418.46094 480.64844 L 434.00977 480.64844 L 434.00977 486.75586 C 434.00977 495.08097 432.11787 501.35038 428.33398 505.57031 C 424.54723 509.78451 418.88435 511.88281 411.37109 511.88281 C 404.60945 511.88281 399.28846 509.64841 395.39844 505.1875 C 391.51415 500.71225 389.5625 494.57607 389.5625 486.75586 L 389.5625 450.2793 C 389.5625 443.2193 391.69535 437.47714 395.97266 433.04492 C 400.24709 428.59549 405.75099 426.38867 412.50977 426.38867 z M 276.91406 428.4375 L 292.01367 428.4375 L 292.01367 490.71484 C 292.01367 492.63691 292.32432 494.03391 292.97266 494.89453 C 293.60091 495.76376 294.62581 496.19727 296.04297 496.19727 C 297.13309 496.19727 298.53723 495.6298 300.24414 494.47656 C 301.95678 493.34341 303.5063 491.88904 304.90625 490.11328 L 304.90625 428.4375 L 320.01562 428.4375 L 320.01562 509.69531 L 304.90625 509.69531 L 304.90625 500.71289 C 302.1293 504.02917 299.23222 506.5445 296.23438 508.27148 C 293.21358 509.98987 290.28367 510.85352 287.45508 510.85352 C 283.96955 510.85352 281.3479 509.64791 279.56641 507.23242 C 277.77631 504.81407 276.91406 501.18815 276.91406 496.3457 L 276.91406 428.4375 z M 356.33203 440.30469 C 355.23904 440.30469 354.18082 440.59208 353.13086 441.11133 C 352.0809 441.65065 351.04459 442.45669 350.01758 443.58984 L 350.01758 494.21289 C 351.25114 495.53538 352.44729 496.49357 353.59766 497.06445 C 354.74802 497.65255 355.95687 497.94922 357.23633 497.94922 C 359.08093 497.94922 360.45957 497.38499 361.31445 496.24609 C 362.19229 495.10433 362.62891 493.2319 362.62891 490.63281 L 362.62891 448.69336 C 362.62891 445.94797 362.09196 443.87383 360.99609 442.43945 C 359.92318 441.02229 358.36311 440.30469 356.33203 440.30469 z M 411.86133 440.60938 C 409.45732 440.60938 407.73484 441.34175 406.69922 442.81055 C 405.64926 444.28508 405.12305 446.72083 405.12305 450.12891 L 405.12305 458.35352 L 418.46094 458.35352 L 418.46094 450.12891 C 418.46094 446.72083 417.93772 444.28508 416.89062 442.81055 C 415.82919 441.34175 414.18502 440.60938 411.86133 440.60938 z "
           transform="matrix(0.2539472,0,0,-0.23963609,-87.308908,80.63656)"
           id="path4275" />
      </g>
      <g
         id="g4353"
         transform="matrix(3.9378265,0,0,-4.1729942,-192.13494,2096.9749)">
        <g
           id="g4361"
           transform="translate(172.9873,389.21)" />
        <path
           style="fill:#ffffff;fill-opacity:1;fill-rule:nonzero;stroke:none"
           d="m 143.03248,418.2961 c -9.771,0 -19.36307,-0.18616 -28.75407,-0.57616 -6.918,0 -12.52525,-5.54713 -12.52525,-12.38713 -0.417,-5.42 -0.59979,-10.83972 -0.58279,-16.25172 -0.017,-5.42 0.16579,-10.83203 0.58279,-16.26203 0,-6.834 5.60725,-12.3801 12.52525,-12.3801 9.875,-0.422 19.98417,-0.59584 30.28817,-0.58084 10.301,-0.015 20.40473,0.15884 30.27973,0.58084 6.922,0 12.53319,5.5461 12.53319,12.3801 0.417,5.43 0.59278,10.84203 0.58378,16.26203 0.009,5.412 -0.16678,10.83172 -0.58378,16.25172 0,6.84 -5.61119,12.38713 -12.53319,12.38713 -9.385,0.39 -18.9741,0.57616 -28.7501,0.57616 l -1.52963,0 -1.5341,0 z m -26.3877,-17.35069 13.25883,0 0,-3.83324 -4.47037,0 0,-22.56464 -4.31859,0 0,22.56464 -4.46987,0 0,3.83324 z m 27.90196,0 3.87269,0 0,-8.49818 c 0.5187,0.59533 1.06603,1.04627 1.6452,1.35356 0.58135,0.31142 1.16835,0.46477 1.76573,0.46477 1.21297,0 2.14188,-0.41526 2.78151,-1.24639 0.63672,-0.83182 0.95776,-2.04327 0.95776,-3.63199 l 0,-10.80468 c 0,-1.38248 -0.29798,-2.4417 -0.89972,-3.17658 -0.6054,-0.73833 -1.47048,-1.10364 -2.60842,-1.10364 -0.74963,0 -1.41552,0.14233 -2.00926,0.43106 -0.58499,0.28461 -1.1294,0.72002 -1.6328,1.31192 l 0,-1.49773 -3.87269,0 0,26.39788 z m 19.74241,-6.4346 c 1.75425,0 3.10435,-0.49085 4.04778,-1.47666 0.94342,-0.98444 1.41208,-2.39914 1.41208,-4.2484 l 0,-4.95606 -7.3357,0 0,-3.67552 c 0,-1.02224 0.12154,-1.73266 0.37943,-2.12864 0.25207,-0.39597 0.68349,-0.5916 1.29107,-0.5916 0.63745,0 1.08562,0.16763 1.33768,0.50174 0.25498,0.33548 0.37894,1.07045 0.37894,2.2185 l 0,1.35404 3.94858,0 0,-1.46356 c 0,-1.99499 -0.48044,-3.4969 -1.44134,-4.50815 -0.96164,-1.00987 -2.39972,-1.51317 -4.30769,-1.51317 -1.7171,0 -3.06835,0.53545 -4.05621,1.60444 -0.9864,1.07243 -1.48202,2.54288 -1.48202,4.41688 l 0,8.7411 c 0,1.69183 0.54164,3.06786 1.62785,4.12998 1.08548,1.06625 2.48318,1.59508 4.19955,1.59508 z m -34.43415,-0.49097 3.8345,0 0,-14.9239 c 0,-0.4606 0.0789,-0.79537 0.24353,-1.00161 0.15955,-0.2083 0.41982,-0.31218 0.7797,-0.31218 0.27684,0 0.63341,0.13599 1.06688,0.41234 0.43492,0.27155 0.82841,0.62054 1.18393,1.04607 l 0,14.77928 3.83698,0 0,-19.47231 -3.83698,0 0,2.15252 c -0.7052,-0.7947 -1.44091,-1.39747 -2.2022,-1.81132 -0.76712,-0.41178 -1.51117,-0.61875 -2.22948,-0.61875 -0.88514,0 -1.5509,0.28891 -2.00331,0.86775 -0.45459,0.57953 -0.67355,1.44842 -0.67355,2.60885 l 0,16.27326 z m 20.16797,-2.84381 c -0.27756,0 -0.54629,-0.0689 -0.81293,-0.1933 -0.26664,-0.12924 -0.5298,-0.3224 -0.79061,-0.59394 l 0,-12.13064 c 0.31326,-0.31692 0.61702,-0.54654 0.90915,-0.68334 0.29214,-0.14093 0.59862,-0.21249 0.92354,-0.21249 0.46843,0 0.81902,0.13521 1.03612,0.40813 0.22293,0.27361 0.3338,0.72278 0.3338,1.34561 l 0,10.04974 c 0,0.6579 -0.13636,1.15494 -0.41465,1.49866 -0.27246,0.33961 -0.66863,0.51157 -1.18442,0.51157 z m 14.10151,-0.073 c -0.61049,0 -1.04791,-0.17504 -1.3109,-0.52702 -0.26664,-0.35335 -0.40027,-0.93704 -0.40027,-1.75374 l 0,-1.97091 3.38712,0 0,1.97091 c 0,0.8167 -0.13287,1.40039 -0.39877,1.75374 -0.26955,0.35198 -0.68709,0.52702 -1.27718,0.52702 z"
           id="path4367"
           inkscape:connector-curvature="0" />
      </g>
    </g>
    <g
       transform="matrix(3.9378265,0,0,-4.1729942,-192.13494,2096.9749)"
       id="g4391">
      <g
         id="g4393"
         clip-path="url(#clipPath4395)">
        <path
           d="m 134.322,425.567 -19.893,0 0,38.396 19.893,0 0,-38.396 z"
           style="fill:#ffffff;fill-opacity:1;fill-rule:nonzero;stroke:none"
           id="path4399"
           inkscape:connector-curvature="0" />
      </g>
    </g>
    <g
       transform="matrix(3.9378265,0,0,-4.1729942,-192.13494,2096.9749)"
       id="g4401">
      <g
         id="g4403"
         clip-path="url(#clipPath4405)">
        <g
           id="g4409"
           transform="translate(136.1826,452.6611)">
          <path
             d="m 0,0 c -1.419,-1.303 -2.134,-3.051 -2.134,-5.24 l 0.008,-14.69 c 0,-2.402 0.688,-4.318 2.07,-5.74 1.378,-1.426 3.227,-2.139 5.532,-2.139 2.387,0 4.267,0.692 5.634,2.067 1.359,1.383 2.046,3.283 2.046,5.715 l 0,14.623 c 0,2.162 -0.695,3.925 -2.082,5.293 C 9.68,1.26 7.892,1.947 5.714,1.947 3.321,1.947 1.414,1.295 0,0 m 3.854,-22.266 c -0.377,0.426 -0.564,1.03 -0.564,1.809 l 0,15.428 c 0,0.619 0.202,1.119 0.604,1.5 0.401,0.375 0.921,0.564 1.565,0.564 0.692,0 1.256,-0.189 1.682,-0.564 0.428,-0.381 0.647,-0.881 0.647,-1.5 l 0,-15.428 c 0,-0.762 -0.207,-1.357 -0.624,-1.791 -0.425,-0.434 -0.993,-0.652 -1.705,-0.652 -0.695,0 -1.228,0.214 -1.605,0.634"
             style="fill:#ffffff;fill-opacity:1;fill-rule:nonzero;stroke:none"
             id="path4411"
             inkscape:connector-curvature="0" />
        </g>
      </g>
    </g>
    <g
       transform="matrix(3.9378265,0,0,-4.1729942,-192.13494,2096.9749)"
       id="g4413">
      <g
         id="g4415"
         clip-path="url(#clipPath4417)">
        <path
           d="m 149.339,424.853 -15.29,0 0,29.756 15.29,0 0,-29.756 z"
           style="fill:#ffffff;fill-opacity:1;fill-rule:nonzero;stroke:none"
           id="path4421"
           inkscape:connector-curvature="0" />
      </g>
    </g>
    <g
       transform="matrix(3.9378265,0,0,-4.1729942,-192.13494,2096.9749)"
       id="g4423">
      <g
         id="g4425"
         clip-path="url(#clipPath4427)">
        <g
           id="g4431"
           transform="translate(163.5732,453.8916)">
          <path
             d="m 0,0 0,-21.496 c -0.501,-0.621 -1.037,-1.129 -1.625,-1.525 -0.597,-0.399 -1.085,-0.598 -1.471,-0.598 -0.497,0 -0.85,0.148 -1.068,0.451 -0.223,0.297 -0.334,0.781 -0.334,1.457 l 0,21.711 -5.261,0 0,-23.674 c 0,-1.685 0.302,-2.949 0.917,-3.795 0.62,-0.838 1.538,-1.26 2.754,-1.26 0.99,0 2.007,0.301 3.06,0.903 1.049,0.599 2.058,1.482 3.028,2.631 l 0,-3.129 5.266,0 L 5.266,0 0,0 Z"
             style="fill:#ffffff;fill-opacity:1;fill-rule:nonzero;stroke:none"
             id="path4433"
             inkscape:connector-curvature="0" />
        </g>
      </g>
    </g>
    <g
       transform="matrix(3.9378265,0,0,-4.1729942,-192.13494,2096.9749)"
       id="g4435">
      <g
         id="g4437"
         clip-path="url(#clipPath4439)">
        <path
           d="m 168.839,425.163 -15.024,0 0,28.729 15.024,0 0,-28.729 z"
           style="fill:#ffffff;fill-opacity:1;fill-rule:nonzero;stroke:none"
           id="path4443"
           inkscape:connector-curvature="0" />
      </g>
    </g>
    <g
       id="g4453"
       transform="matrix(3.9378265,0,0,-4.1729942,480.12215,464.53124)">
      <path
         d="m 0,0 c 0,1.188 0.183,2.037 0.549,2.551 0.361,0.512 0.962,0.767 1.8,0.767 0.81,0 1.383,-0.255 1.753,-0.767 C 4.467,2.037 4.649,1.188 4.649,0 l 0,-2.867 L 0,-2.867 0,0 Z m 10.069,-7.262 0,7.209 c 0,2.69 -0.643,4.748 -1.938,6.18 C 6.836,7.561 4.983,8.275 2.575,8.275 0.219,8.275 -1.7,7.506 -3.19,5.955 -4.681,4.41 -5.424,2.408 -5.424,-0.053 l 0,-12.715 c 0,-2.726 0.68,-4.865 2.034,-6.425 1.356,-1.555 3.211,-2.334 5.568,-2.334 2.619,0 4.593,0.732 5.913,2.201 1.319,1.471 1.978,3.656 1.978,6.558 l 0,2.129 -5.42,0 0,-1.97 c 0,-1.67 -0.17,-2.739 -0.52,-3.227 -0.346,-0.486 -0.961,-0.73 -1.836,-0.73 -0.834,0 -1.426,0.285 -1.772,0.861 C 0.167,-15.129 0,-14.096 0,-12.609 l 0,5.347 10.069,0 z m -24.882,-6.857 c 0,-0.906 -0.152,-1.559 -0.458,-1.957 -0.298,-0.397 -0.779,-0.594 -1.422,-0.594 -0.446,0 -0.867,0.104 -1.268,0.309 -0.401,0.199 -0.818,0.533 -1.248,0.994 l 0,17.646 c 0.358,0.395 0.719,0.676 1.085,0.864 0.366,0.181 0.735,0.281 1.116,0.281 0.708,0 1.252,-0.25 1.626,-0.744 0.382,-0.5 0.569,-1.223 0.569,-2.18 l 0,-14.619 z m 0.286,22.037 c -0.82,0 -1.626,-0.223 -2.424,-0.676 -0.795,-0.447 -1.546,-1.103 -2.258,-1.969 l 0,12.362 -5.316,0 0,-38.399 5.316,0 0,2.178 c 0.691,-0.861 1.438,-1.494 2.241,-1.908 0.815,-0.42 1.729,-0.627 2.758,-0.627 1.562,0 2.75,0.531 3.581,1.605 0.826,1.069 1.235,2.61 1.235,4.621 l 0,15.717 c 0,2.311 -0.441,4.073 -1.315,5.283 -0.878,1.209 -2.153,1.813 -3.818,1.813 m -20.407,-21.856 c -0.488,-0.619 -1.028,-1.126 -1.625,-1.521 -0.595,-0.402 -1.085,-0.6 -1.465,-0.6 -0.494,0 -0.851,0.151 -1.07,0.454 -0.226,0.3 -0.334,0.787 -0.334,1.457 l 0,21.709 -5.264,0 0,-23.672 c 0,-1.688 0.301,-2.952 0.925,-3.795 0.621,-0.842 1.535,-1.262 2.75,-1.262 0.986,0 2.007,0.301 3.06,0.9 1.045,0.602 2.055,1.479 3.023,2.635 l 0,-3.131 5.267,0 0,28.325 -5.267,0 0,-21.499 z m -9.691,31.573 -18.2,0 0,-5.576 6.136,0 0,-32.823 5.928,0 0,32.823 6.136,0 0,5.576 z"
         style="fill:none;fill-opacity:1;fill-rule:nonzero;stroke:none"
         id="path4455"
         inkscape:connector-curvature="0" />
    </g>
    <g
       id="g300"
       transform="matrix(2.86875,0,0,-2.86875,447.39556,473.33306)" />
    <path
       inkscape:connector-curvature="0"
       id="path4271"
       style="fill:none;fill-opacity:1;fill-rule:nonzero;stroke:none"
       d="m 712.01367,691.21797 c 0,22.95146 -17.72022,41.72994 -39.37827,41.72994 l -590.985083,0 c -21.65804,0 -39.37826,-18.77848 -39.37826,-41.72994 l 0,-626.282979 c 0,-22.95146 17.72022,-41.72994 39.37826,-41.72994 l 590.985083,0 c 21.65805,0 39.37827,18.77848 39.37827,41.72994 l 0,626.282979 z" />
  </g>
  <g
     inkscape:groupmode="layer"
     id="layer2"
     inkscape:label="Layer 2" />
</svg>
