<?xml version="1.0" encoding="UTF-8" standalone="no"?>
<!-- Created with Inkscape (http://www.inkscape.org/) -->

<svg
   xmlns:dc="http://purl.org/dc/elements/1.1/"
   xmlns:cc="http://creativecommons.org/ns#"
   xmlns:rdf="http://www.w3.org/1999/02/22-rdf-syntax-ns#"
   xmlns:svg="http://www.w3.org/2000/svg"
   xmlns="http://www.w3.org/2000/svg"
   xmlns:sodipodi="http://sodipodi.sourceforge.net/DTD/sodipodi-0.dtd"
   xmlns:inkscape="http://www.inkscape.org/namespaces/inkscape"
   width="189.01596mm"
   height="200.30521mm"
   viewBox="0 0 669.74159 709.74285"
   id="svg5536"
   version="1.1"
   inkscape:version="0.91 r13725"
   sodipodi:docname="logo_YT.svg">
  <defs
     id="defs5538">
    <clipPath
       clipPathUnits="userSpaceOnUse"
       id="clipPath4395">
      <path
         d="m 128.299,463.964 -3.669,-15.348 -0.377,0 -3.846,15.348 -5.977,0 7.061,-23.176 0,-15.22 5.929,0 0,15.931 6.902,22.465 -6.023,0 z"
         id="path4397"
         inkscape:connector-curvature="0" />
    </clipPath>
    <clipPath
       clipPathUnits="userSpaceOnUse"
       id="clipPath4439">
      <path
         d="m 163.573,453.892 0,-21.497 c -0.501,-0.621 -1.037,-1.128 -1.625,-1.525 l 0,0 c -0.596,-0.398 -1.085,-0.597 -1.471,-0.597 l 0,0 c -0.497,0 -0.85,0.148 -1.068,0.451 l 0,0 c -0.222,0.297 -0.334,0.781 -0.334,1.457 l 0,0 0,21.711 -5.261,0 0,-23.674 c 0,-1.686 0.302,-2.949 0.918,-3.795 l 0,0 c 0.62,-0.838 1.538,-1.26 2.754,-1.26 l 0,0 c 0.99,0 2.007,0.301 3.059,0.902 l 0,0 c 1.049,0.6 2.059,1.483 3.028,2.631 l 0,0 0,-3.128 5.266,0 0,28.324 -5.266,0 z"
         id="path4441"
         inkscape:connector-curvature="0" />
    </clipPath>
    <clipPath
       clipPathUnits="userSpaceOnUse"
       id="clipPath4427">
      <path
         d="m 0,925 841.89,0 0,-925 L 0,0 0,925 Z"
         id="path4429"
         inkscape:connector-curvature="0" />
    </clipPath>
    <clipPath
       clipPathUnits="userSpaceOnUse"
       id="clipPath4417">
      <path
         d="m 136.183,452.661 c -1.42,-1.303 -2.134,-3.051 -2.134,-5.24 l 0,0 0.008,-14.689 c 0,-2.403 0.687,-4.319 2.07,-5.741 l 0,0 c 1.378,-1.426 3.226,-2.139 5.531,-2.139 l 0,0 c 2.388,0 4.268,0.692 5.635,2.067 l 0,0 c 1.358,1.383 2.046,3.283 2.046,5.715 l 0,0 0,14.623 c 0,2.162 -0.695,3.926 -2.082,5.293 l 0,0 c -1.395,1.371 -3.183,2.058 -5.36,2.058 l 0,0 c -2.393,0 -4.301,-0.652 -5.714,-1.947 m 3.854,-22.266 c -0.378,0.426 -0.564,1.03 -0.564,1.809 l 0,0 0,15.428 c 0,0.619 0.202,1.119 0.603,1.5 l 0,0 c 0.401,0.375 0.922,0.565 1.566,0.565 l 0,0 c 0.692,0 1.255,-0.19 1.681,-0.565 l 0,0 c 0.429,-0.381 0.647,-0.881 0.647,-1.5 l 0,0 0,-15.428 c 0,-0.762 -0.207,-1.357 -0.623,-1.791 l 0,0 c -0.425,-0.434 -0.993,-0.652 -1.705,-0.652 l 0,0 c -0.696,0 -1.228,0.215 -1.605,0.634"
         id="path4419"
         inkscape:connector-curvature="0" />
    </clipPath>
    <clipPath
       clipPathUnits="userSpaceOnUse"
       id="clipPath4405">
      <path
         d="m 0,925 841.89,0 0,-925 L 0,0 0,925 Z"
         id="path4407"
         inkscape:connector-curvature="0" />
    </clipPath>
    <clipPath
       clipPathUnits="userSpaceOnUse"
       id="clipPath4373">
      <path
         d="m 144.566,418.296 -1.533,0 c -9.771,0 -19.364,-0.186 -28.755,-0.576 l 0,0 c -6.918,0 -12.525,-5.547 -12.525,-12.387 l 0,0 c -0.418,-5.42 -0.599,-10.84 -0.583,-16.252 l 0,0 c -0.016,-5.42 0.165,-10.832 0.583,-16.261 l 0,0 c 0,-6.835 5.607,-12.382 12.525,-12.382 l 0,0 c 9.875,-0.422 19.985,-0.596 30.288,-0.579 l 0,0 c 10.301,-0.017 20.406,0.157 30.281,0.579 l 0,0 c 6.921,0 12.533,5.547 12.533,12.382 l 0,0 c 0.417,5.429 0.593,10.841 0.584,16.261 l 0,0 c 0.009,5.412 -0.167,10.832 -0.584,16.252 l 0,0 c 0,6.84 -5.612,12.387 -12.533,12.387 l 0,0 c -9.387,0.39 -18.975,0.576 -28.75,0.576 l 0,0 -1.531,0 z"
         id="path4375"
         inkscape:connector-curvature="0" />
    </clipPath>
    <clipPath
       clipPathUnits="userSpaceOnUse"
       id="clipPath4357">
      <path
         d="m 0,925 841.89,0 0,-925 L 0,0 0,925 Z"
         id="path4359"
         inkscape:connector-curvature="0" />
    </clipPath>
    <clipPath
       clipPathUnits="userSpaceOnUse"
       id="clipPath4347">
      <path
         d="m 165.843,451.909 0,-21.496 c -0.501,-0.621 -1.038,-1.129 -1.625,-1.525 l 0,0 c -0.597,-0.399 -1.085,-0.598 -1.471,-0.598 l 0,0 c -0.497,0 -0.851,0.149 -1.068,0.451 l 0,0 c -0.223,0.297 -0.334,0.781 -0.334,1.457 l 0,0 0,21.711 -5.261,0 0,-23.674 c 0,-1.685 0.302,-2.949 0.917,-3.795 l 0,0 c 0.62,-0.838 1.538,-1.259 2.754,-1.259 l 0,0 c 0.99,0 2.006,0.301 3.059,0.902 l 0,0 c 1.049,0.6 2.059,1.482 3.029,2.631 l 0,0 0,-3.129 5.265,0 0,28.324 -5.265,0 z"
         id="path4349"
         inkscape:connector-curvature="0" />
    </clipPath>
    <clipPath
       clipPathUnits="userSpaceOnUse"
       id="clipPath4335">
      <path
         d="m 0,925 841.89,0 0,-925 L 0,0 0,925 Z"
         id="path4337"
         inkscape:connector-curvature="0" />
    </clipPath>
    <clipPath
       clipPathUnits="userSpaceOnUse"
       id="clipPath4325">
      <path
         d="m 138.452,450.679 c -1.419,-1.303 -2.134,-3.051 -2.134,-5.24 l 0,0 0.009,-14.69 c 0,-2.402 0.686,-4.318 2.07,-5.74 l 0,0 c 1.377,-1.426 3.226,-2.139 5.531,-2.139 l 0,0 c 2.388,0 4.267,0.692 5.635,2.067 l 0,0 c 1.358,1.382 2.046,3.283 2.046,5.715 l 0,0 0,14.622 c 0,2.163 -0.696,3.926 -2.083,5.293 l 0,0 c -1.394,1.372 -3.182,2.059 -5.36,2.059 l 0,0 c -2.393,0 -4.3,-0.652 -5.714,-1.947 m 3.854,-22.266 c -0.377,0.426 -0.564,1.029 -0.564,1.809 l 0,0 0,15.427 c 0,0.62 0.202,1.119 0.604,1.501 l 0,0 c 0.401,0.374 0.921,0.564 1.565,0.564 l 0,0 c 0.693,0 1.256,-0.19 1.682,-0.564 l 0,0 c 0.428,-0.382 0.647,-0.881 0.647,-1.501 l 0,0 0,-15.427 c 0,-0.762 -0.207,-1.358 -0.624,-1.791 l 0,0 c -0.424,-0.434 -0.993,-0.653 -1.705,-0.653 l 0,0 c -0.695,0 -1.228,0.215 -1.605,0.635"
         id="path4327"
         inkscape:connector-curvature="0" />
    </clipPath>
    <clipPath
       clipPathUnits="userSpaceOnUse"
       id="clipPath4313">
      <path
         d="m 0,925 841.89,0 0,-925 L 0,0 0,925 Z"
         id="path4315"
         inkscape:connector-curvature="0" />
    </clipPath>
    <clipPath
       clipPathUnits="userSpaceOnUse"
       id="clipPath4303">
      <path
         d="m 130.568,461.982 -3.669,-15.348 -0.376,0 -3.848,15.348 -5.976,0 7.062,-23.176 0,-15.221 5.928,0 0,15.932 6.903,22.465 -6.024,0 z"
         id="path4305"
         inkscape:connector-curvature="0" />
    </clipPath>
    <clipPath
       clipPathUnits="userSpaceOnUse"
       id="clipPath4291">
      <path
         d="m 0,925 841.89,0 0,-925 L 0,0 0,925 Z"
         id="path4293"
         inkscape:connector-curvature="0" />
    </clipPath>
    <clipPath
       clipPathUnits="userSpaceOnUse"
       id="clipPath4281">
      <path
         d="m 146.836,416.314 -1.535,0 c -9.77,0 -19.362,-0.186 -28.753,-0.577 l 0,0 c -6.918,0 -12.525,-5.547 -12.525,-12.387 l 0,0 c -0.418,-5.42 -0.6,-10.839 -0.583,-16.251 l 0,0 c -0.017,-5.421 0.165,-10.832 0.583,-16.262 l 0,0 c 0,-6.834 5.607,-12.381 12.525,-12.381 l 0,0 c 9.875,-0.422 19.984,-0.595 30.288,-0.58 l 0,0 c 10.3,-0.015 20.406,0.158 30.28,0.58 l 0,0 c 6.922,0 12.534,5.547 12.534,12.381 l 0,0 c 0.416,5.43 0.592,10.841 0.583,16.262 l 0,0 c 0.009,5.412 -0.167,10.831 -0.583,16.251 l 0,0 c 0,6.84 -5.612,12.387 -12.534,12.387 l 0,0 c -9.386,0.391 -18.974,0.577 -28.75,0.577 l 0,0 -1.53,0 z"
         id="path4283"
         inkscape:connector-curvature="0" />
    </clipPath>
  </defs>
  <sodipodi:namedview
     id="base"
     pagecolor="#ffffff"
     bordercolor="#666666"
     borderopacity="1.0"
     inkscape:pageopacity="0.0"
     inkscape:pageshadow="2"
     inkscape:zoom="0.35"
     inkscape:cx="-178.70063"
     inkscape:cy="200.58571"
     inkscape:document-units="px"
     inkscape:current-layer="layer1"
     showgrid="false"
     fit-margin-top="0"
     fit-margin-left="0"
     fit-margin-right="0"
     fit-margin-bottom="0"
     inkscape:window-width="1920"
     inkscape:window-height="1016"
     inkscape:window-x="0"
     inkscape:window-y="27"
     inkscape:window-maximized="1" />
  <metadata
     id="metadata5541">
    <rdf:RDF>
      <cc:Work
         rdf:about="">
        <dc:format>image/svg+xml</dc:format>
        <dc:type
           rdf:resource="http://purl.org/dc/dcmitype/StillImage" />
        <dc:title></dc:title>
      </cc:Work>
    </rdf:RDF>
  </metadata>
  <g
     inkscape:label="Layer 1"
     inkscape:groupmode="layer"
     id="layer1"
     transform="translate(-42.272057,-23.205054)">
    <path
       inkscape:connector-curvature="0"
       id="path4271"
       style="fill:#4e4e4e;fill-opacity:1;fill-rule:nonzero;stroke:none"
       d="m 712.01367,691.21797 c 0,22.95146 -17.72022,41.72994 -39.37827,41.72994 l -590.985083,0 c -21.65804,0 -39.37826,-18.77848 -39.37826,-41.72994 l 0,-626.282976 c 0,-22.95146 17.72022,-41.72994 39.37826,-41.72994 l 590.985083,0 c 21.65805,0 39.37827,18.77848 39.37827,41.72994 l 0,626.282976 z" />
    <g
       id="g4273"
       transform="matrix(3.9378265,0,0,-4.1729942,386.07939,359.70095)">
      <path
         d="m 0,0 -1.534,0 c -9.771,0 -19.363,-0.186 -28.754,-0.576 -6.918,0 -12.525,-5.547 -12.525,-12.387 -0.417,-5.42 -0.6,-10.84 -0.583,-16.252 -0.017,-5.42 0.166,-10.832 0.583,-16.262 0,-6.834 5.607,-12.38 12.525,-12.38 9.875,-0.422 19.984,-0.596 30.288,-0.581 10.301,-0.015 20.405,0.159 30.28,0.581 6.922,0 12.533,5.546 12.533,12.38 0.417,5.43 0.593,10.842 0.584,16.262 0.009,5.412 -0.167,10.832 -0.584,16.252 0,6.84 -5.611,12.387 -12.533,12.387 C 20.895,-0.186 11.306,0 1.53,0 L 0,0"
         style="fill:#3b3c3c;fill-opacity:1;fill-rule:nonzero;stroke:none"
         id="path4275"
         inkscape:connector-curvature="0" />
    </g>
    <g
       transform="matrix(3.9378265,0,0,-4.1729942,-192.13494,2096.9749)"
       id="g4277">
      <g
         id="g4279"
         clip-path="url(#clipPath4281)">
        <path
           d="m 190.242,357.86 -86.819,0 0,58.453 86.819,0 0,-58.453 z"
           style="fill:#3b3c3c;fill-opacity:1;fill-rule:nonzero;stroke:none"
           id="path4285"
           inkscape:connector-curvature="0" />
      </g>
    </g>
    <g
       transform="matrix(3.9378265,0,0,-4.1729942,-192.13494,2096.9749)"
       id="g4287">
      <g
         id="g4289"
         clip-path="url(#clipPath4291)">
        <g
           id="g4295"
           transform="translate(130.5684,461.9814)">
          <path
             d="m 0,0 -3.669,-15.348 -0.377,0 L -7.893,0 l -5.976,0 7.061,-23.176 0,-15.22 5.929,0 0,15.931 L 6.023,0 0,0 Z"
             style="fill:#3b3c3c;fill-opacity:1;fill-rule:nonzero;stroke:none"
             id="path4297"
             inkscape:connector-curvature="0" />
        </g>
      </g>
    </g>
    <g
       transform="matrix(3.9378265,0,0,-4.1729942,-192.13494,2096.9749)"
       id="g4299">
      <g
         id="g4301"
         clip-path="url(#clipPath4303)">
        <path
           d="m 136.592,423.585 -19.893,0 0,38.396 19.893,0 0,-38.396 z"
           style="fill:#3b3c3c;fill-opacity:1;fill-rule:nonzero;stroke:none"
           id="path4307"
           inkscape:connector-curvature="0" />
      </g>
    </g>
    <g
       transform="matrix(3.9378265,0,0,-4.1729942,-192.13494,2096.9749)"
       id="g4309">
      <g
         id="g4311"
         clip-path="url(#clipPath4313)">
        <g
           id="g4317"
           transform="translate(138.4521,450.6787)">
          <path
             d="m 0,0 c -1.419,-1.303 -2.134,-3.051 -2.134,-5.24 l 0.008,-14.69 c 0,-2.402 0.688,-4.318 2.07,-5.74 1.378,-1.426 3.227,-2.139 5.532,-2.139 2.387,0 4.267,0.692 5.634,2.067 1.359,1.383 2.046,3.283 2.046,5.715 l 0,14.623 c 0,2.162 -0.695,3.925 -2.082,5.293 C 9.68,1.26 7.892,1.947 5.714,1.947 3.321,1.947 1.414,1.295 0,0 m 3.854,-22.266 c -0.377,0.426 -0.564,1.03 -0.564,1.809 l 0,15.428 c 0,0.619 0.202,1.119 0.604,1.5 0.401,0.375 0.921,0.564 1.565,0.564 0.692,0 1.256,-0.189 1.682,-0.564 0.428,-0.381 0.647,-0.881 0.647,-1.5 l 0,-15.428 c 0,-0.762 -0.207,-1.357 -0.624,-1.791 -0.425,-0.434 -0.993,-0.652 -1.705,-0.652 -0.695,0 -1.228,0.214 -1.605,0.634"
             style="fill:#3b3c3c;fill-opacity:1;fill-rule:nonzero;stroke:none"
             id="path4319"
             inkscape:connector-curvature="0" />
        </g>
      </g>
    </g>
    <g
       transform="matrix(3.9378265,0,0,-4.1729942,-192.13494,2096.9749)"
       id="g4321">
      <g
         id="g4323"
         clip-path="url(#clipPath4325)">
        <path
           d="m 151.608,422.87 -15.29,0 0,29.756 15.29,0 0,-29.756 z"
           style="fill:#3b3c3c;fill-opacity:1;fill-rule:nonzero;stroke:none"
           id="path4329"
           inkscape:connector-curvature="0" />
      </g>
    </g>
    <g
       transform="matrix(3.9378265,0,0,-4.1729942,-192.13494,2096.9749)"
       id="g4331">
      <g
         id="g4333"
         clip-path="url(#clipPath4335)">
        <g
           id="g4339"
           transform="translate(165.8428,451.9092)">
          <path
             d="m 0,0 0,-21.496 c -0.501,-0.621 -1.037,-1.129 -1.625,-1.525 -0.597,-0.399 -1.085,-0.598 -1.471,-0.598 -0.497,0 -0.85,0.148 -1.068,0.451 -0.223,0.297 -0.334,0.781 -0.334,1.457 l 0,21.711 -5.261,0 0,-23.674 c 0,-1.685 0.302,-2.949 0.917,-3.795 0.62,-0.838 1.538,-1.26 2.754,-1.26 0.99,0 2.007,0.301 3.06,0.903 1.049,0.599 2.058,1.482 3.028,2.631 l 0,-3.129 5.266,0 L 5.266,0 0,0 Z"
             style="fill:#3b3c3c;fill-opacity:1;fill-rule:nonzero;stroke:none"
             id="path4341"
             inkscape:connector-curvature="0" />
        </g>
      </g>
    </g>
    <g
       transform="matrix(3.9378265,0,0,-4.1729942,-192.13494,2096.9749)"
       id="g4343">
      <g
         id="g4345"
         clip-path="url(#clipPath4347)">
        <path
           d="m 171.108,423.181 -15.024,0 0,28.729 15.024,0 0,-28.729 z"
           style="fill:#3b3c3c;fill-opacity:1;fill-rule:nonzero;stroke:none"
           id="path4351"
           inkscape:connector-curvature="0" />
      </g>
    </g>
    <g
       transform="matrix(3.9378265,0,0,-4.1729942,-192.13494,2096.9749)"
       id="g4353">
      <g
         id="g4355"
         clip-path="url(#clipPath4357)">
        <g
           id="g4361"
           transform="translate(172.9873,389.21)">
          <path
             d="m 0,0 c 0,1.188 0.183,2.037 0.549,2.551 0.361,0.512 0.962,0.767 1.8,0.767 0.81,0 1.383,-0.255 1.753,-0.767 C 4.467,2.037 4.649,1.188 4.649,0 l 0,-2.867 L 0,-2.867 0,0 Z m 10.069,-7.262 0,7.209 c 0,2.69 -0.643,4.748 -1.938,6.18 C 6.836,7.561 4.983,8.275 2.575,8.275 0.219,8.275 -1.7,7.506 -3.19,5.955 -4.681,4.41 -5.424,2.408 -5.424,-0.053 l 0,-12.715 c 0,-2.726 0.68,-4.865 2.034,-6.425 1.356,-1.555 3.211,-2.334 5.568,-2.334 2.619,0 4.593,0.732 5.913,2.201 1.319,1.471 1.978,3.656 1.978,6.558 l 0,2.129 -5.42,0 0,-1.97 c 0,-1.67 -0.17,-2.739 -0.52,-3.227 -0.346,-0.486 -0.961,-0.73 -1.836,-0.73 -0.834,0 -1.426,0.285 -1.772,0.861 C 0.167,-15.129 0,-14.096 0,-12.609 l 0,5.347 10.069,0 z m -24.882,-6.857 c 0,-0.906 -0.152,-1.559 -0.458,-1.957 -0.298,-0.397 -0.779,-0.594 -1.422,-0.594 -0.446,0 -0.867,0.104 -1.268,0.309 -0.401,0.199 -0.818,0.533 -1.248,0.994 l 0,17.646 c 0.358,0.395 0.719,0.676 1.085,0.864 0.366,0.181 0.735,0.281 1.116,0.281 0.708,0 1.252,-0.25 1.626,-0.744 0.382,-0.5 0.569,-1.223 0.569,-2.18 l 0,-14.619 z m 0.286,22.037 c -0.82,0 -1.626,-0.223 -2.424,-0.676 -0.795,-0.447 -1.546,-1.103 -2.258,-1.969 l 0,12.362 -5.316,0 0,-38.399 5.316,0 0,2.178 c 0.691,-0.861 1.438,-1.494 2.241,-1.908 0.815,-0.42 1.729,-0.627 2.758,-0.627 1.562,0 2.75,0.531 3.581,1.605 0.826,1.069 1.235,2.61 1.235,4.621 l 0,15.717 c 0,2.311 -0.441,4.073 -1.315,5.283 -0.878,1.209 -2.153,1.813 -3.818,1.813 m -20.407,-21.856 c -0.488,-0.619 -1.028,-1.126 -1.625,-1.521 -0.595,-0.402 -1.085,-0.6 -1.465,-0.6 -0.494,0 -0.851,0.151 -1.07,0.454 -0.226,0.3 -0.334,0.787 -0.334,1.457 l 0,21.709 -5.264,0 0,-23.672 c 0,-1.688 0.301,-2.952 0.925,-3.795 0.621,-0.842 1.535,-1.262 2.75,-1.262 0.986,0 2.007,0.301 3.06,0.9 1.045,0.602 2.055,1.479 3.023,2.635 l 0,-3.131 5.267,0 0,28.325 -5.267,0 0,-21.499 z m -9.691,31.573 -18.2,0 0,-5.576 6.136,0 0,-32.823 5.928,0 0,32.823 6.136,0 0,5.576 z"
             style="fill:#3b3c3c;fill-opacity:1;fill-rule:nonzero;stroke:none"
             id="path4363"
             inkscape:connector-curvature="0" />
        </g>
        <g
           id="g4365"
           transform="translate(144.5664,418.2959)">
          <path
             d="m 0,0 -1.534,0 c -9.771,0 -19.363,-0.186 -28.754,-0.576 -6.918,0 -12.525,-5.547 -12.525,-12.387 -0.417,-5.42 -0.6,-10.84 -0.583,-16.252 -0.017,-5.42 0.166,-10.832 0.583,-16.262 0,-6.834 5.607,-12.38 12.525,-12.38 9.875,-0.422 19.984,-0.596 30.288,-0.581 10.301,-0.015 20.405,0.159 30.28,0.581 6.922,0 12.533,5.546 12.533,12.38 0.417,5.43 0.593,10.842 0.584,16.262 0.009,5.412 -0.167,10.832 -0.584,16.252 0,6.84 -5.611,12.387 -12.533,12.387 C 20.895,-0.186 11.306,0 1.53,0 L 0,0"
             style="fill:#ffffff;fill-opacity:1;fill-rule:nonzero;stroke:none"
             id="path4367"
             inkscape:connector-curvature="0" />
        </g>
      </g>
    </g>
    <g
       transform="matrix(3.9378265,0,0,-4.1729942,-192.13494,2096.9749)"
       id="g4369">
      <g
         id="g4371"
         clip-path="url(#clipPath4373)">
        <path
           d="m 187.973,359.843 -86.819,0 0,58.453 86.819,0 0,-58.453 z"
           style="fill:#ffffff;fill-opacity:1;fill-rule:nonzero;stroke:none"
           id="path4377"
           inkscape:connector-curvature="0" />
      </g>
    </g>
    <g
       transform="matrix(3.9378265,0,0,-4.1729942,-192.13494,2096.9749)"
       id="g4391">
      <g
         id="g4393"
         clip-path="url(#clipPath4395)">
        <path
           d="m 134.322,425.567 -19.893,0 0,38.396 19.893,0 0,-38.396 z"
           style="fill:#ffffff;fill-opacity:1;fill-rule:nonzero;stroke:none"
           id="path4399"
           inkscape:connector-curvature="0" />
      </g>
    </g>
    <g
       transform="matrix(3.9378265,0,0,-4.1729942,-192.13494,2096.9749)"
       id="g4401">
      <g
         id="g4403"
         clip-path="url(#clipPath4405)">
        <g
           id="g4409"
           transform="translate(136.1826,452.6611)">
          <path
             d="m 0,0 c -1.419,-1.303 -2.134,-3.051 -2.134,-5.24 l 0.008,-14.69 c 0,-2.402 0.688,-4.318 2.07,-5.74 1.378,-1.426 3.227,-2.139 5.532,-2.139 2.387,0 4.267,0.692 5.634,2.067 1.359,1.383 2.046,3.283 2.046,5.715 l 0,14.623 c 0,2.162 -0.695,3.925 -2.082,5.293 C 9.68,1.26 7.892,1.947 5.714,1.947 3.321,1.947 1.414,1.295 0,0 m 3.854,-22.266 c -0.377,0.426 -0.564,1.03 -0.564,1.809 l 0,15.428 c 0,0.619 0.202,1.119 0.604,1.5 0.401,0.375 0.921,0.564 1.565,0.564 0.692,0 1.256,-0.189 1.682,-0.564 0.428,-0.381 0.647,-0.881 0.647,-1.5 l 0,-15.428 c 0,-0.762 -0.207,-1.357 -0.624,-1.791 -0.425,-0.434 -0.993,-0.652 -1.705,-0.652 -0.695,0 -1.228,0.214 -1.605,0.634"
             style="fill:#ffffff;fill-opacity:1;fill-rule:nonzero;stroke:none"
             id="path4411"
             inkscape:connector-curvature="0" />
        </g>
      </g>
    </g>
    <g
       transform="matrix(3.9378265,0,0,-4.1729942,-192.13494,2096.9749)"
       id="g4413">
      <g
         id="g4415"
         clip-path="url(#clipPath4417)">
        <path
           d="m 149.339,424.853 -15.29,0 0,29.756 15.29,0 0,-29.756 z"
           style="fill:#ffffff;fill-opacity:1;fill-rule:nonzero;stroke:none"
           id="path4421"
           inkscape:connector-curvature="0" />
      </g>
    </g>
    <g
       transform="matrix(3.9378265,0,0,-4.1729942,-192.13494,2096.9749)"
       id="g4423">
      <g
         id="g4425"
         clip-path="url(#clipPath4427)">
        <g
           id="g4431"
           transform="translate(163.5732,453.8916)">
          <path
             d="m 0,0 0,-21.496 c -0.501,-0.621 -1.037,-1.129 -1.625,-1.525 -0.597,-0.399 -1.085,-0.598 -1.471,-0.598 -0.497,0 -0.85,0.148 -1.068,0.451 -0.223,0.297 -0.334,0.781 -0.334,1.457 l 0,21.711 -5.261,0 0,-23.674 c 0,-1.685 0.302,-2.949 0.917,-3.795 0.62,-0.838 1.538,-1.26 2.754,-1.26 0.99,0 2.007,0.301 3.06,0.903 1.049,0.599 2.058,1.482 3.028,2.631 l 0,-3.129 5.266,0 L 5.266,0 0,0 Z"
             style="fill:#ffffff;fill-opacity:1;fill-rule:nonzero;stroke:none"
             id="path4433"
             inkscape:connector-curvature="0" />
        </g>
      </g>
    </g>
    <g
       transform="matrix(3.9378265,0,0,-4.1729942,-192.13494,2096.9749)"
       id="g4435">
      <g
         id="g4437"
         clip-path="url(#clipPath4439)">
        <path
           d="m 168.839,425.163 -15.024,0 0,28.729 15.024,0 0,-28.729 z"
           style="fill:#ffffff;fill-opacity:1;fill-rule:nonzero;stroke:none"
           id="path4443"
           inkscape:connector-curvature="0" />
      </g>
    </g>
    <g
       id="g4453"
       transform="matrix(3.9378265,0,0,-4.1729942,480.12215,464.53124)">
      <path
         d="m 0,0 c 0,1.188 0.183,2.037 0.549,2.551 0.361,0.512 0.962,0.767 1.8,0.767 0.81,0 1.383,-0.255 1.753,-0.767 C 4.467,2.037 4.649,1.188 4.649,0 l 0,-2.867 L 0,-2.867 0,0 Z m 10.069,-7.262 0,7.209 c 0,2.69 -0.643,4.748 -1.938,6.18 C 6.836,7.561 4.983,8.275 2.575,8.275 0.219,8.275 -1.7,7.506 -3.19,5.955 -4.681,4.41 -5.424,2.408 -5.424,-0.053 l 0,-12.715 c 0,-2.726 0.68,-4.865 2.034,-6.425 1.356,-1.555 3.211,-2.334 5.568,-2.334 2.619,0 4.593,0.732 5.913,2.201 1.319,1.471 1.978,3.656 1.978,6.558 l 0,2.129 -5.42,0 0,-1.97 c 0,-1.67 -0.17,-2.739 -0.52,-3.227 -0.346,-0.486 -0.961,-0.73 -1.836,-0.73 -0.834,0 -1.426,0.285 -1.772,0.861 C 0.167,-15.129 0,-14.096 0,-12.609 l 0,5.347 10.069,0 z m -24.882,-6.857 c 0,-0.906 -0.152,-1.559 -0.458,-1.957 -0.298,-0.397 -0.779,-0.594 -1.422,-0.594 -0.446,0 -0.867,0.104 -1.268,0.309 -0.401,0.199 -0.818,0.533 -1.248,0.994 l 0,17.646 c 0.358,0.395 0.719,0.676 1.085,0.864 0.366,0.181 0.735,0.281 1.116,0.281 0.708,0 1.252,-0.25 1.626,-0.744 0.382,-0.5 0.569,-1.223 0.569,-2.18 l 0,-14.619 z m 0.286,22.037 c -0.82,0 -1.626,-0.223 -2.424,-0.676 -0.795,-0.447 -1.546,-1.103 -2.258,-1.969 l 0,12.362 -5.316,0 0,-38.399 5.316,0 0,2.178 c 0.691,-0.861 1.438,-1.494 2.241,-1.908 0.815,-0.42 1.729,-0.627 2.758,-0.627 1.562,0 2.75,0.531 3.581,1.605 0.826,1.069 1.235,2.61 1.235,4.621 l 0,15.717 c 0,2.311 -0.441,4.073 -1.315,5.283 -0.878,1.209 -2.153,1.813 -3.818,1.813 m -20.407,-21.856 c -0.488,-0.619 -1.028,-1.126 -1.625,-1.521 -0.595,-0.402 -1.085,-0.6 -1.465,-0.6 -0.494,0 -0.851,0.151 -1.07,0.454 -0.226,0.3 -0.334,0.787 -0.334,1.457 l 0,21.709 -5.264,0 0,-23.672 c 0,-1.688 0.301,-2.952 0.925,-3.795 0.621,-0.842 1.535,-1.262 2.75,-1.262 0.986,0 2.007,0.301 3.06,0.9 1.045,0.602 2.055,1.479 3.023,2.635 l 0,-3.131 5.267,0 0,28.325 -5.267,0 0,-21.499 z m -9.691,31.573 -18.2,0 0,-5.576 6.136,0 0,-32.823 5.928,0 0,32.823 6.136,0 0,5.576 z"
         style="fill:#4e4e4e;fill-opacity:1;fill-rule:nonzero;stroke:none"
         id="path4455"
         inkscape:connector-curvature="0" />
    </g>
  </g>
</svg>
