<?xml version="1.0" encoding="UTF-8" standalone="no"?>
<!-- Created with Inkscape (http://www.inkscape.org/) -->

<svg
   xmlns:dc="http://purl.org/dc/elements/1.1/"
   xmlns:cc="http://creativecommons.org/ns#"
   xmlns:rdf="http://www.w3.org/1999/02/22-rdf-syntax-ns#"
   xmlns:svg="http://www.w3.org/2000/svg"
   xmlns="http://www.w3.org/2000/svg"
   xmlns:sodipodi="http://sodipodi.sourceforge.net/DTD/sodipodi-0.dtd"
   xmlns:inkscape="http://www.inkscape.org/namespaces/inkscape"
   width="210mm"
   height="297mm"
   viewBox="0 0 744.09448819 1052.3622047"
   id="svg15758"
   version="1.1"
   inkscape:version="0.91 r13725"
   sodipodi:docname="pts_blanc.svg">
  <defs
     id="defs15760" />
  <sodipodi:namedview
     id="base"
     pagecolor="#ffffff"
     bordercolor="#666666"
     borderopacity="1.0"
     inkscape:pageopacity="0.0"
     inkscape:pageshadow="2"
     inkscape:zoom="0.35"
     inkscape:cx="-139.28571"
     inkscape:cy="520"
     inkscape:document-units="px"
     inkscape:current-layer="layer1"
     showgrid="false"
     inkscape:window-width="1920"
     inkscape:window-height="1016"
     inkscape:window-x="0"
     inkscape:window-y="27"
     inkscape:window-maximized="1" />
  <metadata
     id="metadata15763">
    <rdf:RDF>
      <cc:Work
         rdf:about="">
        <dc:format>image/svg+xml</dc:format>
        <dc:type
           rdf:resource="http://purl.org/dc/dcmitype/StillImage" />
        <dc:title></dc:title>
      </cc:Work>
    </rdf:RDF>
  </metadata>
  <g
     inkscape:groupmode="layer"
     id="layer2"
     inkscape:label="Layer 2"
     sodipodi:insensitive="true">
    <rect
       style="display:inline;opacity:1;fill:#000700;fill-opacity:1;stroke:#000000;stroke-opacity:1"
       id="rect16320"
       width="760"
       height="1060"
       x="-5.7142768"
       y="-3.3520792" />
  </g>
  <g
     inkscape:label="Layer 1"
     inkscape:groupmode="layer"
     id="layer1"
     style="display:inline">
    <g
       id="g16428"
       transform="matrix(3,0,0,3,-845.71402,-659.00963)">
      <path
         d="m 462.49526,318.78007 c -0.275,9.5125 -3.9875,18.605 -10.525,25.6975 l -1.5,1.6087 -27.5975,27.6125 -27.4712,-27.47 -1.6213,-1.7637 c -6.8112,-7.3688 -10.5612,-16.9125 -10.5612,-26.8438 0,-10.59496 4.1287,-20.55246 11.6137,-28.03871 7.485,-7.4975 17.4438,-11.61375 28.04,-11.61375 18.84,0 34.635,13.2075 38.66,30.84875 l 18.0625,0 c -4.2375,-27.51375 -28.025,-48.5875 -56.7225,-48.5875 -15.8475,0 -30.2037,6.42125 -40.5862,16.80375 -10.3838,10.385 -16.805,24.74 -16.805,40.58746 0,15.0188 5.8187,28.6525 15.2662,38.8825 l -0.081,0.071 1.6075,1.6075 0.035,0.036 40.5637,40.5613 40.535,-40.5375 0.05,-0.038 0.037,-0.046 1.575,-1.5837 -0.075,-0.071 c 9.2,-9.965 14.95,-23.165 15.2375,-37.7237 l -17.7375,0"
         style="fill:#ffffff;fill-opacity:1;fill-rule:nonzero;stroke:none"
         id="path4696"
         inkscape:connector-curvature="0" />
      <path
         d="m 429.10276,354.55877 c 0,3.4125 -2.7662,6.1775 -6.1762,6.1775 -3.4113,0 -6.1775,-2.765 -6.1775,-6.1775 0,-3.4112 2.7662,-6.1762 6.1775,-6.1762 3.41,0 6.1762,2.765 6.1762,6.1762"
         style="fill:#ffffff;fill-opacity:1;fill-rule:nonzero;stroke:none"
         id="path4698"
         inkscape:connector-curvature="0" />
      <path
         d="m 461.94526,311.44757 c 0.225,1.5362 0.3625,3.1025 0.4,4.6912 l 17.7375,0 c -0.025,-1.5787 -0.1,-3.1462 -0.2625,-4.6912 l -17.875,0"
         style="fill:#ffffff;fill-opacity:1;fill-rule:nonzero;stroke:none"
         id="path4700"
         inkscape:connector-curvature="0" />
      <path
         d="m 435.41776,309.12881 c -2.7187,0.006 -4.9937,2.28 -4.9987,4.99496 0,2.7088 2.255,4.9813 4.985,5.0125 2.7137,0.031 5.0475,-2.305 5.0262,-5.0287 -0.024,-2.72876 -2.2937,-4.98501 -5.0125,-4.97876 z m 2.2,31.00376 c -1.4275,0 -2.8225,0 -4.1387,0 -0.2713,-1.4413 -0.3938,-2.88 -0.8275,-4.2175 -0.6975,-2.1513 -1.5038,-4.2775 -2.435,-6.3388 -1.4538,-3.2175 -3.0875,-6.3537 -4.5725,-9.5575 -0.9025,-1.9525 -1.655,-3.9737 -1.6125,-6.1825 0.1062,-5.51746 4.2687,-10.20371 9.7412,-10.97496 6.08,-0.8575 11.5975,3.04875 12.8475,9.05376 0.45,2.1725 0.1125,4.2437 -0.725,6.245 -0.7875,1.9275 -1.6875,3.8162 -2.5375,5.7162 -1.3212,2.9063 -2.7012,5.7838 -3.9537,8.7163 -0.9725,2.2775 -1.6063,4.665 -1.7375,7.1612 -0.01,0.1163 -0.03,0.2313 -0.049,0.3788"
         style="fill:#ffffff;fill-opacity:1;fill-rule:evenodd;stroke:none"
         id="path4718"
         inkscape:connector-curvature="0" />
      <path
         d="m 404.67526,304.52881 c 0.025,2.72 2.3063,4.99 5.01,4.985 2.705,-0.005 4.985,-2.28625 4.9975,-4.99875 0.014,-2.72125 -2.3325,-5.05375 -5.04,-5.01125 -2.7375,0.0425 -4.9912,2.32375 -4.9675,5.025 z m 7.1413,25.98876 c -1.3788,0 -2.76,0 -4.1538,0 -0.1275,-0.9288 -0.21,-1.8463 -0.3837,-2.745 -0.525,-2.7413 -1.5875,-5.3 -2.775,-7.805 -1.505,-3.1725 -3.11,-6.3 -4.5513,-9.50001 -0.6637,-1.47 -1.2825,-3.03375 -1.5025,-4.61375 -0.6387,-4.59125 1.1425,-8.275 4.9325,-10.82875 6.7988,-4.58125 15.9825,-0.63625 17.5188,7.4125 0.4087,2.13625 0.087,4.18125 -0.7663,6.12125 -1.47,3.34126 -3.03,6.64376 -4.5712,9.95376 -1.2888,2.7687 -2.53,5.5562 -3.1975,8.5512 -0.2463,1.1113 -0.3625,2.2513 -0.55,3.4538"
         style="fill:#ffffff;fill-opacity:1;fill-rule:evenodd;stroke:none"
         id="path4720"
         inkscape:connector-curvature="0" />
    </g>
  </g>
</svg>
