<?xml version="1.0" encoding="UTF-8" standalone="no"?>
<!-- Created with Inkscape (http://www.inkscape.org/) -->

<svg
   xmlns:dc="http://purl.org/dc/elements/1.1/"
   xmlns:cc="http://creativecommons.org/ns#"
   xmlns:rdf="http://www.w3.org/1999/02/22-rdf-syntax-ns#"
   xmlns:svg="http://www.w3.org/2000/svg"
   xmlns="http://www.w3.org/2000/svg"
   xmlns:sodipodi="http://sodipodi.sourceforge.net/DTD/sodipodi-0.dtd"
   xmlns:inkscape="http://www.inkscape.org/namespaces/inkscape"
   width="210mm"
   height="297mm"
   viewBox="0 0 744.09448819 1052.3622047"
   id="svg15758"
   version="1.1"
   inkscape:version="0.91 r13725"
   sodipodi:docname="atome_blanc.svg">
  <defs
     id="defs15760" />
  <sodipodi:namedview
     id="base"
     pagecolor="#ffffff"
     bordercolor="#666666"
     borderopacity="1.0"
     inkscape:pageopacity="0.0"
     inkscape:pageshadow="2"
     inkscape:zoom="0.35"
     inkscape:cx="-139.28571"
     inkscape:cy="520"
     inkscape:document-units="px"
     inkscape:current-layer="layer1"
     showgrid="false"
     inkscape:window-width="1920"
     inkscape:window-height="1016"
     inkscape:window-x="0"
     inkscape:window-y="27"
     inkscape:window-maximized="1" />
  <metadata
     id="metadata15763">
    <rdf:RDF>
      <cc:Work
         rdf:about="">
        <dc:format>image/svg+xml</dc:format>
        <dc:type
           rdf:resource="http://purl.org/dc/dcmitype/StillImage" />
        <dc:title></dc:title>
      </cc:Work>
    </rdf:RDF>
  </metadata>
  <g
     inkscape:groupmode="layer"
     id="layer2"
     inkscape:label="Layer 2"
     sodipodi:insensitive="true">
    <rect
       style="display:inline;opacity:1;fill:#000700;fill-opacity:1;stroke:#000000;stroke-opacity:1"
       id="rect16320"
       width="760"
       height="1060"
       x="-5.7142768"
       y="-3.3520792" />
  </g>
  <g
     inkscape:label="Layer 1"
     inkscape:groupmode="layer"
     id="layer1"
     style="display:inline">
    <g
       id="g16481"
       transform="matrix(3,0,0,3,-717.14265,-416.1525)">
      <path
         d="m 405.35243,227.35151 c -0.275,9.5137 -3.9875,18.605 -10.525,25.6975 l -1.5,1.6087 -27.5975,27.6138 -27.4713,-27.4713 -1.6212,-1.7637 c -6.8113,-7.3688 -10.5613,-16.9113 -10.5613,-26.8438 0,-10.595 4.1288,-20.5537 11.6138,-28.0387 7.485,-7.4975 17.4437,-11.6138 28.04,-11.6138 18.84,0 34.635,13.2075 38.66,30.8488 l 18.0625,0 c -4.2375,-27.5138 -28.025,-48.58752 -56.7225,-48.58752 -15.8475,0 -30.2038,6.42002 -40.5863,16.80372 -10.3837,10.385 -16.805,24.7413 -16.805,40.5875 0,15.0175 5.8188,28.6525 15.2663,38.8825 l -0.081,0.071 1.6075,1.6075 0.035,0.036 40.5638,40.5613 40.535,-40.5388 0.05,-0.036 0.037,-0.046 1.575,-1.5837 -0.075,-0.071 c 9.2,-9.965 14.95,-23.165 15.2375,-37.7237 l -17.7375,0"
         style="fill:#ffffff;fill-opacity:1;fill-rule:nonzero;stroke:none"
         id="path4702"
         inkscape:connector-curvature="0" />
      <path
         d="m 371.95993,263.13021 c 0,3.4125 -2.7663,6.1788 -6.1763,6.1788 -3.4112,0 -6.1775,-2.7663 -6.1775,-6.1788 0,-3.4112 2.7663,-6.1762 6.1775,-6.1762 3.41,0 6.1763,2.765 6.1763,6.1762"
         style="fill:#ffffff;fill-opacity:1;fill-rule:nonzero;stroke:none"
         id="path4704"
         inkscape:connector-curvature="0" />
      <path
         d="m 404.80243,220.01901 c 0.225,1.5362 0.3625,3.1025 0.4,4.6912 l 17.7375,0 c -0.025,-1.5787 -0.1,-3.1462 -0.2625,-4.6912 l -17.875,0"
         style="fill:#ffffff;fill-opacity:1;fill-rule:nonzero;stroke:none"
         id="path4706"
         inkscape:connector-curvature="0" />
      <path
         d="m 367.39613,213.10771 c 2.1825,1.2588 4.26,2.455 6.4588,3.7225 -0.3813,-1.885 -0.7388,-3.6575 -1.1175,-5.5275 -1.8363,0.62 -3.5275,1.1913 -5.3413,1.805 z m -8.8337,-1.8025 c -0.3788,1.8913 -0.7338,3.66 -1.1063,5.5225 2.1975,-1.2662 4.2688,-2.4612 6.445,-3.715 -1.7887,-0.6062 -3.5037,-1.1875 -5.3387,-1.8075 z m 0.071,24.5363 c 1.76,-0.595 3.475,-1.175 5.2663,-1.7825 -2.1775,-1.2563 -4.2538,-2.4538 -6.4263,-3.705 0.2713,1.42 0.515,2.7462 0.7813,4.0662 0.09,0.4425 0.2325,0.875 0.3787,1.4213 z m 15.2175,-5.5025 c -2.21,1.2737 -4.2787,2.4675 -6.45,3.72 1.7975,0.6087 3.515,1.19 5.3413,1.8075 0.38,-1.8925 0.7325,-3.6575 1.1087,-5.5275 z m 1.735,-3.02 c 1.4538,-1.28 2.81,-2.4738 4.2463,-3.7375 -1.4575,-1.2775 -2.805,-2.4625 -4.2463,-3.7238 0,2.5313 0,4.9025 0,7.4613 z m -19.8687,-7.4663 c -1.445,1.27 -2.8025,2.4638 -4.25,3.7325 1.4575,1.2788 2.815,2.4675 4.25,3.7263 0,-2.5463 0,-4.92 0,-7.4588 z m 3.4062,-10.225 c 0.205,0.081 0.345,0.135 0.4838,0.1913 1.875,0.7662 3.755,1.525 5.6212,2.3087 0.3088,0.13 0.5488,0.125 0.8538,0 1.8525,-0.7762 3.715,-1.5275 5.5762,-2.29 0.165,-0.065 0.3275,-0.1362 0.485,-0.2025 -0.5662,-2.1162 -1.9262,-4.8175 -3.315,-6.3837 -0.505,-0.5713 -1.115,-1.1088 -1.7837,-1.47 -1.3375,-0.725 -2.6163,-0.435 -3.8413,0.7087 -2.0862,1.945 -3.1187,4.4913 -4.08,7.14 z m -2.3212,26.5775 c 0,-0.1262 0.01,-0.1925 0,-0.2587 -0.2863,-2.0413 -0.5963,-4.08 -0.8475,-6.125 -0.056,-0.455 -0.2288,-0.7138 -0.5813,-0.9775 -1.4475,-1.0813 -2.8712,-2.1988 -4.3037,-3.3075 -0.2488,-0.1925 -0.4888,-0.3975 -0.7588,-0.62 -1.4862,1.6987 -2.8287,3.4375 -3.6437,5.5075 -0.3,0.76 -0.5163,1.5825 -0.5975,2.3925 -0.1525,1.5087 0.4975,2.5125 1.87,3.1637 1.1375,0.54 2.3525,0.7063 3.5962,0.7425 1.7675,0.05 3.5075,-0.1462 5.2663,-0.5175 z m 2.3337,1.3475 c 0.8088,2.3275 1.7313,4.5613 3.365,6.4025 0.495,0.56 1.0963,1.0813 1.7488,1.435 1.335,0.725 2.6112,0.4325 3.8462,-0.6962 1.2475,-1.14 2.1175,-2.5438 2.825,-4.0513 0.4688,-1.0025 0.8563,-2.0425 1.2725,-3.0437 l -0.16,-0.1138 c -2.0462,-0.84 -4.0912,-1.685 -6.1425,-2.5087 -0.16,-0.065 -0.3975,-0.031 -0.5637,0.04 -0.7788,0.3275 -1.535,0.7025 -2.3188,1.0225 -1.265,0.5137 -2.5425,0.9962 -3.8725,1.5137 z m 21.915,-12.5837 c -1.8612,1.4075 -3.655,2.7575 -5.4375,4.1287 -0.1325,0.1013 -0.1987,0.3375 -0.2237,0.5213 -0.2138,1.6087 -0.4025,3.22 -0.615,4.8287 -0.078,0.5788 -0.1988,1.1525 -0.3138,1.7975 1.0325,0.1425 1.9975,0.3113 2.97,0.4 1.7413,0.16 3.4763,0.1588 5.1788,-0.3537 2.09,-0.6325 3.0175,-2.1388 2.5425,-4.275 -0.6338,-2.7838 -2.3338,-4.9463 -4.1013,-7.0475 z m -24.2387,-14.045 c -1.0138,-0.1413 -1.995,-0.3138 -2.9838,-0.4025 -1.7425,-0.1563 -3.4887,-0.1775 -5.1762,0.3787 -1.0888,0.36 -2.055,0.9113 -2.4463,2.0925 -0.2487,0.7588 -0.2062,1.535 -0.023,2.305 0.5013,2.1088 1.6663,3.865 2.955,5.5525 0.3663,0.48 0.7675,0.9288 1.1175,1.3488 1.8638,-1.4113 3.67,-2.7738 5.4675,-4.1513 0.11,-0.085 0.1675,-0.2825 0.1863,-0.4362 0.099,-0.805 0.1575,-1.6163 0.2675,-2.42 0.1912,-1.3875 0.4112,-2.77 0.635,-4.2675 z m 24.1837,11.3262 c 1.4813,-1.6987 2.83,-3.4362 3.6375,-5.51 0.3188,-0.8075 0.5188,-1.6837 0.6063,-2.545 0.1125,-1.09 -0.275,-2.0737 -1.28,-2.6337 -0.6825,-0.38 -1.4313,-0.7 -2.1875,-0.8763 -1.7863,-0.4175 -3.5975,-0.2787 -5.4,-0.044 -0.6288,0.081 -1.2525,0.2037 -1.8913,0.31 0.014,0.1612 0.019,0.2437 0.03,0.325 0.2888,2.0762 0.5688,4.1525 0.88,6.225 0.039,0.2475 0.195,0.5375 0.3888,0.6912 0.8762,0.6888 1.7987,1.3225 2.6812,2.005 0.8413,0.65 1.6563,1.3375 2.535,2.0525 z m -6.7362,1.3363 c -0.064,-1.4188 -0.1363,-2.8375 -0.1863,-4.2588 -0.014,-0.41 -0.1775,-0.6662 -0.5237,-0.9 -2.365,-1.6125 -4.8388,-3.03 -7.4138,-4.2775 -0.3587,-0.1737 -0.6362,-0.1612 -0.9887,0.01 -2.5925,1.2538 -5.0775,2.6888 -7.4538,4.3125 -0.2787,0.1888 -0.4275,0.3913 -0.4512,0.7275 -0.2113,2.925 -0.2113,5.8475 0,8.7713 0.024,0.3362 0.17,0.5412 0.4462,0.73 2.3925,1.6337 4.895,3.0712 7.5,4.3362 0.3425,0.1663 0.61,0.1488 0.9425,-0.013 2.5775,-1.2425 5.0513,-2.6662 7.4175,-4.2775 0.3438,-0.2325 0.5125,-0.485 0.525,-0.8975 0.049,-1.42 0.1225,-2.8387 0.1863,-4.26 z m -7.9988,26 c -0.4062,0 -0.8137,0 -1.2187,0 l -0.1175,-0.085 c -1.4663,-0.2563 -2.5438,-1.1288 -3.4788,-2.2138 -1.5625,-1.8112 -2.51,-3.955 -3.2737,-6.1875 -0.335,-0.9712 -0.6113,-1.9625 -0.9188,-2.9687 -0.1375,0.027 -0.2662,0.049 -0.395,0.076 -1.6225,0.32 -3.235,0.71 -4.8687,0.9475 -2.0575,0.3 -4.1188,0.2588 -6.1125,-0.4475 -1.6975,-0.6 -2.8663,-1.7087 -3.23,-3.52 -0.2225,-1.1062 -0.035,-2.1912 0.32,-3.245 0.7175,-2.1362 1.97,-3.9562 3.4125,-5.6512 0.7862,-0.9238 1.6275,-1.8025 2.45,-2.7063 -0.8575,-0.9437 -1.745,-1.85 -2.55,-2.8237 -1.6475,-1.9925 -3.0788,-4.1063 -3.6163,-6.7113 -0.4662,-2.2587 0.4838,-4.3212 2.5588,-5.3125 0.545,-0.2587 1.135,-0.45 1.7225,-0.5837 2.1837,-0.4963 4.3737,-0.32 6.55,0.064 1.26,0.2188 2.5037,0.5313 3.7787,0.8075 0.058,-0.195 0.1163,-0.3862 0.1688,-0.58 0.735,-2.6675 1.6412,-5.2625 3.2275,-7.56 0.8537,-1.24 1.8525,-2.3337 3.2862,-2.9287 0.3525,-0.1475 0.7238,-0.2488 1.0863,-0.3713 0.405,0 0.8125,0 1.2187,0 l 0.1175,0.086 c 1.4663,0.2575 2.5438,1.1287 3.4788,2.2137 1.5612,1.8113 2.5087,3.955 3.275,6.1888 0.3337,0.9712 0.61,1.9625 0.9212,2.9787 0.465,-0.1125 0.9188,-0.23 1.375,-0.34 2.795,-0.6637 5.605,-1.1425 8.485,-0.6475 1.5388,0.2613 2.9638,0.7788 3.9388,2.0813 1.1875,1.5812 1.05,3.325 0.4875,5.0775 -0.7,2.1262 -1.95,3.9312 -3.375,5.615 -0.7988,0.94 -1.6563,1.8262 -2.49,2.7437 0.8575,0.945 1.7412,1.8525 2.5525,2.825 1.65,2.0075 3.0875,4.1363 3.625,6.7625 0.4375,2.1838 -0.4875,4.2375 -2.475,5.22 -0.575,0.2813 -1.2,0.4863 -1.8175,0.6263 -2.185,0.4925 -4.3763,0.3237 -6.5513,-0.062 -1.26,-0.2238 -2.5025,-0.5313 -3.7775,-0.8075 -0.058,0.195 -0.1175,0.3862 -0.17,0.58 -0.7325,2.6675 -1.6412,5.2625 -3.2275,7.5612 -0.8525,1.2388 -1.8525,2.3338 -3.285,2.9275 -0.3537,0.1475 -0.725,0.25 -1.0875,0.3713"
         style="fill:#ffffff;fill-opacity:1;fill-rule:nonzero;stroke:none"
         id="path4708"
         inkscape:connector-curvature="0" />
      <path
         d="m 371.63363,223.61021 c -0.013,3.2913 -2.6975,5.9625 -5.9937,5.9575 -3.3125,0 -5.9913,-2.71 -5.9688,-6.0312 0.023,-3.2863 2.72,-5.9463 6.0163,-5.9313 3.29,0.016 5.955,2.7088 5.9462,6.005"
         style="fill:#ffffff;fill-opacity:1;fill-rule:evenodd;stroke:none"
         id="path4710"
         inkscape:connector-curvature="0" />
    </g>
  </g>
</svg>
