<?xml version="1.0" encoding="UTF-8" standalone="no"?>
<!-- Created with Inkscape (http://www.inkscape.org/) -->

<svg
   xmlns:dc="http://purl.org/dc/elements/1.1/"
   xmlns:cc="http://creativecommons.org/ns#"
   xmlns:rdf="http://www.w3.org/1999/02/22-rdf-syntax-ns#"
   xmlns:svg="http://www.w3.org/2000/svg"
   xmlns="http://www.w3.org/2000/svg"
   xmlns:sodipodi="http://sodipodi.sourceforge.net/DTD/sodipodi-0.dtd"
   xmlns:inkscape="http://www.inkscape.org/namespaces/inkscape"
   width="210mm"
   height="297mm"
   viewBox="0 0 744.09448819 1052.3622047"
   id="svg15758"
   version="1.1"
   inkscape:version="0.91 r13725"
   sodipodi:docname="enveloppe_blanc.svg">
  <defs
     id="defs15760" />
  <sodipodi:namedview
     id="base"
     pagecolor="#ffffff"
     bordercolor="#666666"
     borderopacity="1.0"
     inkscape:pageopacity="0.0"
     inkscape:pageshadow="2"
     inkscape:zoom="0.35"
     inkscape:cx="-139.28571"
     inkscape:cy="520"
     inkscape:document-units="px"
     inkscape:current-layer="layer1"
     showgrid="false"
     inkscape:window-width="1920"
     inkscape:window-height="1016"
     inkscape:window-x="0"
     inkscape:window-y="27"
     inkscape:window-maximized="1" />
  <metadata
     id="metadata15763">
    <rdf:RDF>
      <cc:Work
         rdf:about="">
        <dc:format>image/svg+xml</dc:format>
        <dc:type
           rdf:resource="http://purl.org/dc/dcmitype/StillImage" />
        <dc:title></dc:title>
      </cc:Work>
    </rdf:RDF>
  </metadata>
  <g
     inkscape:groupmode="layer"
     id="layer2"
     inkscape:label="Layer 2"
     sodipodi:insensitive="true">
    <rect
       style="display:inline;opacity:1;fill:#000700;fill-opacity:1;stroke:#000000;stroke-opacity:1"
       id="rect16320"
       width="760"
       height="1060"
       x="-5.7142768"
       y="-3.3520792" />
  </g>
  <g
     inkscape:label="Layer 1"
     inkscape:groupmode="layer"
     id="layer1"
     style="display:inline">
    <path
       inkscape:connector-curvature="0"
       id="path4712"
       style="fill:#ffffff;fill-opacity:1;fill-rule:nonzero;stroke:none"
       d="m 1116.781,381.6372 c -0.275,9.5125 -3.9875,18.605 -10.525,25.6975 l -1.5,1.60875 -27.5975,27.61375 -27.4713,-27.47125 -1.6212,-1.7625 c -6.8113,-7.37 -10.5613,-16.91375 -10.5613,-26.845 0,-10.595 4.1288,-20.5525 11.6138,-28.0375 7.485,-7.49875 17.4437,-11.61375 28.04,-11.61375 18.84,0 34.635,13.20625 38.66,30.84625 l 18.0625,0 c -4.2375,-27.5125 -28.025,-48.58625 -56.7225,-48.58625 -15.8475,0 -30.2038,6.42125 -40.5863,16.805 -10.3837,10.38375 -16.805,24.73875 -16.805,40.58625 0,15.01875 5.8188,28.6525 15.2663,38.8825 l -0.081,0.0713 1.6075,1.6075 0.035,0.0362 40.5638,40.56125 40.535,-40.5375 0.05,-0.0375 0.037,-0.0475 1.575,-1.5825 -0.075,-0.0713 c 9.2,-9.965 14.95,-23.165 15.2375,-37.72375 l -17.7375,0" />
    <path
       inkscape:connector-curvature="0"
       id="path4714"
       style="fill:#ffffff;fill-opacity:1;fill-rule:nonzero;stroke:none"
       d="m 1083.3885,417.41595 c 0,3.4125 -2.7663,6.1775 -6.1763,6.1775 -3.4112,0 -6.1775,-2.765 -6.1775,-6.1775 0,-3.41 2.7663,-6.17625 6.1775,-6.17625 3.41,0 6.1763,2.76625 6.1763,6.17625" />
    <path
       inkscape:connector-curvature="0"
       id="path4716"
       style="fill:#ffffff;fill-opacity:1;fill-rule:nonzero;stroke:none"
       d="m 1116.231,374.30595 c 0.225,1.535 0.3625,3.10125 0.4,4.69 l 17.7375,0 c -0.025,-1.58 -0.1,-3.14625 -0.2625,-4.69 l -17.875,0" />
    <path
       inkscape:connector-curvature="0"
       id="path4722"
       style="fill:#ffffff;fill-opacity:1;fill-rule:nonzero;stroke:none"
       d="m 1077.7847,366.7397 c -5.955,0 -11.9087,0 -17.8625,0 -1.5225,0 -2.2137,0.71 -2.2312,2.24375 -0,0.365 0.094,0.575 0.4325,0.75875 6.4212,3.445 12.835,6.90625 19.2437,10.375 0.315,0.17125 0.5388,0.15 0.8438,-0.015 2.4075,-1.31375 4.825,-2.6075 7.2362,-3.91125 4.0025,-2.1575 8.0013,-4.31375 11.9963,-6.47875 0.1625,-0.0863 0.375,-0.2475 0.3875,-0.39125 0.2,-1.805 -0.775,-2.5975 -2.1413,-2.5925 -5.97,0.0238 -11.9375,0.0113 -17.905,0.0113 z m -20.0862,3.25375 c 0,0.30375 0,0.45625 0,0.60875 0,6.49375 0,12.99 0,19.48375 0,1.50125 0.7125,2.21125 2.2125,2.21125 11.9087,0 23.82,0 35.73,0 1.5025,0 2.215,-0.70875 2.215,-2.21125 0,-6.49375 0,-12.9875 0,-19.4825 0,-0.1625 -0.025,-0.325 -0.037,-0.59125 -4.0088,3.13 -7.9463,6.20125 -11.9188,9.29875 3.7738,3.86625 7.5038,7.6825 11.2313,11.49875 l -0.062,0.06 c -4.56,-3.26 -9.1275,-6.52125 -13.7113,-9.795 -1.405,0.91375 -2.8,1.82125 -4.1962,2.7275 -0.4513,0.29375 -0.9113,0.81125 -1.3625,0.80625 -0.4738,-0.007 -0.9463,-0.50875 -1.41,-0.80625 -1.3963,-0.905 -2.7888,-1.81375 -4.195,-2.7275 -4.5875,3.2725 -9.1538,6.535 -13.7213,9.7975 l -0.051,-0.0663 c 3.7362,-3.825 7.4737,-7.64875 11.2312,-11.495 -3.9825,-3.10625 -7.915,-6.1725 -11.9537,-9.3175 z m -3.6175,21.09375 c 0,-7.7125 0,-15.425 0,-23.14 0.051,-0.18875 0.1075,-0.37625 0.1537,-0.56625 0.6175,-2.5475 2.7263,-4.23625 5.3613,-4.24125 5.38,-0.0113 10.7612,-0.006 16.1425,-0.004 6.8012,0 13.6037,-0.01 20.4025,0.009 2.415,0.007 4.54,1.72375 5.14,4.055 0.062,0.25125 0.125,0.49875 0.1875,0.7475 0,7.715 0,15.4275 0,23.14 -0.05,0.18875 -0.1,0.3775 -0.15,0.56625 -0.625,2.5475 -2.725,4.23625 -5.3625,4.24 -5.3963,0.0125 -10.7938,0.005 -16.1913,0.005 -6.785,-0.001 -13.5712,0.01 -20.355,-0.009 -2.4087,-0.007 -4.5362,-1.7236 -5.1337,-4.0561 -0.064,-0.24875 -0.1313,-0.4975 -0.195,-0.74625" />
    <g
       id="g16561"
       transform="matrix(3,0,0,3,-2959.9997,-1864.7244)">
      <path
         d="m 1159.6381,713.06578 c -0.275,9.5125 -3.9875,18.605 -10.525,25.6975 l -1.5,1.60875 -27.5975,27.61375 -27.4712,-27.47125 -1.6213,-1.7625 c -6.8112,-7.37 -10.5612,-16.91375 -10.5612,-26.845 0,-10.595 4.1287,-20.5525 11.6137,-28.0375 7.485,-7.49875 17.4438,-11.61375 28.04,-11.61375 18.84,0 34.635,13.20625 38.66,30.84625 l 18.0625,0 c -4.2375,-27.5125 -28.025,-48.58625 -56.7225,-48.58625 -15.8475,0 -30.2037,6.42125 -40.5862,16.805 -10.3838,10.38375 -16.805,24.73875 -16.805,40.58625 0,15.01875 5.8187,28.6525 15.2662,38.8825 l -0.081,0.0712 1.6075,1.6075 0.035,0.0362 40.5637,40.56125 40.535,-40.5375 0.05,-0.0375 0.037,-0.0475 1.575,-1.5825 -0.075,-0.0712 c 9.2,-9.965 14.95,-23.165 15.2375,-37.72375 l -17.7375,0"
         style="fill:#ffffff;fill-opacity:1;fill-rule:nonzero;stroke:none"
         id="path4712-3"
         inkscape:connector-curvature="0" />
      <path
         d="m 1126.2456,748.84453 c 0,3.4125 -2.7662,6.1775 -6.1762,6.1775 -3.4113,0 -6.1775,-2.765 -6.1775,-6.1775 0,-3.41 2.7662,-6.17625 6.1775,-6.17625 3.41,0 6.1762,2.76625 6.1762,6.17625"
         style="fill:#ffffff;fill-opacity:1;fill-rule:nonzero;stroke:none"
         id="path4714-6"
         inkscape:connector-curvature="0" />
      <path
         d="m 1159.0881,705.73453 c 0.225,1.535 0.3625,3.10125 0.4,4.69 l 17.7375,0 c -0.025,-1.58 -0.1,-3.14625 -0.2625,-4.69 l -17.875,0"
         style="fill:#ffffff;fill-opacity:1;fill-rule:nonzero;stroke:none"
         id="path4716-7"
         inkscape:connector-curvature="0" />
      <path
         d="m 1120.6419,698.16828 c -5.955,0 -11.9088,0 -17.8625,0 -1.5225,0 -2.2138,0.71 -2.2313,2.24375 0,0.365 0.094,0.575 0.4325,0.75875 6.4213,3.445 12.835,6.90625 19.2438,10.375 0.315,0.17125 0.5387,0.15 0.8437,-0.015 2.4075,-1.31375 4.825,-2.6075 7.2363,-3.91125 4.0025,-2.1575 8.0012,-4.31375 11.9962,-6.47875 0.1625,-0.0862 0.375,-0.2475 0.3875,-0.39125 0.2,-1.805 -0.775,-2.5975 -2.1412,-2.5925 -5.97,0.0238 -11.9375,0.0113 -17.905,0.0113 z m -20.0863,3.25375 c 0,0.30375 0,0.45625 0,0.60875 0,6.49375 0,12.99 0,19.48375 0,1.50125 0.7125,2.21125 2.2125,2.21125 11.9088,0 23.82,0 35.73,0 1.5025,0 2.215,-0.70875 2.215,-2.21125 0,-6.49375 0,-12.9875 0,-19.4825 0,-0.1625 -0.025,-0.325 -0.037,-0.59125 -4.0087,3.13 -7.9462,6.20125 -11.9187,9.29875 3.7737,3.86625 7.5037,7.6825 11.2312,11.49875 l -0.062,0.06 c -4.56,-3.26 -9.1275,-6.52125 -13.7112,-9.795 -1.405,0.91375 -2.8,1.82125 -4.1963,2.7275 -0.4512,0.29375 -0.9112,0.81125 -1.3625,0.80625 -0.4737,-0.007 -0.9462,-0.50875 -1.41,-0.80625 -1.3962,-0.905 -2.7887,-1.81375 -4.195,-2.7275 -4.5875,3.2725 -9.1537,6.535 -13.7212,9.7975 l -0.051,-0.0663 c 3.7363,-3.825 7.4738,-7.64875 11.2313,-11.495 -3.9825,-3.10625 -7.915,-6.1725 -11.9538,-9.3175 z m -3.6175,21.09375 c 0,-7.7125 0,-15.425 0,-23.14 0.051,-0.18875 0.1075,-0.37625 0.1538,-0.56625 0.6175,-2.5475 2.7262,-4.23625 5.3612,-4.24125 5.38,-0.0112 10.7613,-0.006 16.1425,-0.004 6.8013,0 13.6038,-0.01 20.4025,0.009 2.415,0.008 4.54,1.72375 5.14,4.055 0.062,0.25125 0.125,0.49875 0.1875,0.7475 0,7.715 0,15.4275 0,23.14 -0.05,0.18875 -0.1,0.3775 -0.15,0.56625 -0.625,2.5475 -2.725,4.23625 -5.3625,4.24 -5.3962,0.0125 -10.7937,0.005 -16.1912,0.005 -6.785,-0.001 -13.5713,0.01 -20.355,-0.009 -2.4088,-0.007 -4.5363,-1.7236 -5.1338,-4.0561 -0.064,-0.24875 -0.1312,-0.4975 -0.195,-0.74625"
         style="fill:#ffffff;fill-opacity:1;fill-rule:nonzero;stroke:none"
         id="path4722-5"
         inkscape:connector-curvature="0" />
    </g>
  </g>
</svg>
