<?xml version="1.0" encoding="UTF-8" standalone="no"?>
<!-- Created with Inkscape (http://www.inkscape.org/) -->

<svg
   xmlns:dc="http://purl.org/dc/elements/1.1/"
   xmlns:cc="http://creativecommons.org/ns#"
   xmlns:rdf="http://www.w3.org/1999/02/22-rdf-syntax-ns#"
   xmlns:svg="http://www.w3.org/2000/svg"
   xmlns="http://www.w3.org/2000/svg"
   xmlns:sodipodi="http://sodipodi.sourceforge.net/DTD/sodipodi-0.dtd"
   xmlns:inkscape="http://www.inkscape.org/namespaces/inkscape"
   width="210mm"
   height="297mm"
   viewBox="0 0 744.09448819 1052.3622047"
   id="svg15166"
   version="1.1"
   inkscape:version="0.91 r13725"
   sodipodi:docname="enveloppe_noir.svg">
  <defs
     id="defs15168" />
  <sodipodi:namedview
     id="base"
     pagecolor="#ffffff"
     bordercolor="#666666"
     borderopacity="1.0"
     inkscape:pageopacity="0.0"
     inkscape:pageshadow="2"
     inkscape:zoom="0.35"
     inkscape:cx="-136.42857"
     inkscape:cy="520"
     inkscape:document-units="px"
     inkscape:current-layer="layer1"
     showgrid="false"
     inkscape:window-width="1920"
     inkscape:window-height="1016"
     inkscape:window-x="0"
     inkscape:window-y="27"
     inkscape:window-maximized="1" />
  <metadata
     id="metadata15171">
    <rdf:RDF>
      <cc:Work
         rdf:about="">
        <dc:format>image/svg+xml</dc:format>
        <dc:type
           rdf:resource="http://purl.org/dc/dcmitype/StillImage" />
        <dc:title></dc:title>
      </cc:Work>
    </rdf:RDF>
  </metadata>
  <g
     inkscape:label="Layer 1"
     inkscape:groupmode="layer"
     id="layer1">
    <path
       inkscape:connector-curvature="0"
       id="path4750"
       style="fill:#231f20;fill-opacity:1;fill-rule:nonzero;stroke:none"
       d="m 496.05536,245.90159 c -0.825,28.5375 -11.9625,55.815 -31.575,77.0925 l -4.5,4.82625 -82.8,82.84125 -82.3875,-82.41375 -4.875,-5.2875 c -20.4375,-22.11 -31.6875,-50.74125 -31.6875,-80.535 0,-31.785 12.375,-61.6575 34.8375,-84.1125 22.4625,-22.49625 52.35,-34.84125 84.1125,-34.84125 56.5125,0 103.9125,39.61875 115.9875,92.53875 l 54.1875,0 c -12.7125,-82.5375 -84.075,-145.758746 -170.175,-145.758746 -47.55,0 -90.6,19.26375 -121.7625,50.414996 -31.125,31.15125 -50.4,74.21625 -50.4,121.75875 0,45.05625 17.4375,85.9575 45.7875,116.6475 l -0.225,0.2136 4.8,4.8225 0.1125,0.1086 121.6875,121.68375 121.6125,-121.6125 0.15,-0.1125 0.1125,-0.1425 4.725,-4.7475 -0.225,-0.2136 c 27.6,-29.895 44.85,-69.495 45.7125,-113.17125 l -53.2125,0" />
    <path
       inkscape:connector-curvature="0"
       id="path4752"
       style="fill:#231f20;fill-opacity:1;fill-rule:nonzero;stroke:none"
       d="m 395.89286,353.23784 c 0,10.2375 -8.325,18.5325 -18.5625,18.5325 -10.2,0 -18.525,-8.295 -18.525,-18.5325 0,-10.23 8.325,-18.52875 18.525,-18.52875 10.2375,0 18.5625,8.29875 18.5625,18.52875" />
    <path
       inkscape:connector-curvature="0"
       id="path4754"
       style="fill:#231f20;fill-opacity:1;fill-rule:nonzero;stroke:none"
       d="m 494.40536,223.90784 c 0.675,4.605 1.0875,9.30375 1.2,14.07 l 53.2125,0 c -0.075,-4.74 -0.3,-9.43875 -0.7875,-14.07 l -53.625,0" />
    <path
       inkscape:connector-curvature="0"
       id="path4760"
       style="fill:#231f20;fill-opacity:1;fill-rule:nonzero;stroke:none"
       d="m 379.05536,201.20909 c -17.85,0 -35.7,0 -53.5875,0 -4.575,0 -6.6375,2.13 -6.675,6.73125 0,1.095 0.2625,1.725 1.275,2.27625 19.275,10.335 38.5125,20.71875 57.75,31.125 0.9375,0.51375 1.6125,0.45 2.5125,-0.045 7.2375,-3.94125 14.475,-7.8225 21.7125,-11.73375 12,-6.4725 24,-12.94125 36,-19.43625 0.4875,-0.2586 1.125,-0.7425 1.1625,-1.17375 0.6,-5.415 -2.325,-7.7925 -6.4125,-7.7775 -17.925,0.0714 -35.8125,0.0339 -53.7375,0.0339 z m -60.2625,9.76125 c 0,0.91125 0,1.36875 0,1.82625 0,19.48125 0,38.97 0,58.45125 0.0375,4.50375 2.1375,6.63375 6.6375,6.63375 35.7375,0 71.475,0 107.2125,0 4.5,0 6.6375,-2.12625 6.6375,-6.63375 0,-19.48125 0,-38.9625 0,-58.4475 0,-0.4875 -0.075,-0.975 -0.1125,-1.77375 -12.0375,9.39 -23.85,18.60375 -35.775,27.89625 11.325,11.59875 22.5375,23.0475 33.7125,34.49625 l -0.1875,0.18 c -13.6875,-9.78 -27.375,-19.56375 -41.1375,-29.385 -4.2,2.74125 -8.4,5.46375 -12.6,8.1825 -1.35,0.88125 -2.7375,2.43375 -4.0875,2.41875 -1.3875,-0.021 -2.8125,-1.52625 -4.2,-2.41875 -4.2,-2.715 -8.4,-5.44125 -12.6,-8.1825 -13.7625,9.8175 -27.45,19.605 -41.175,29.3925 l -0.15,-0.1989 c 11.2125,-11.475 22.425,-22.94625 33.7125,-34.485 -11.9625,-9.31875 -23.775,-18.5175 -35.8875,-27.9525 z m -10.8375,63.28125 c 0,-23.1375 0,-46.275 0,-69.42 0.15,-0.56625 0.3375,-1.12875 0.45,-1.69875 1.875,-7.6425 8.175,-12.70875 16.0875,-12.72375 16.1625,-0.0336 32.2875,-0.018 48.45,-0.012 20.4,0 40.8,-0.03 61.2,0.027 7.2375,0.024 13.6125,5.17125 15.4125,12.165 0.1875,0.75375 0.375,1.49625 0.5625,2.2425 0,23.145 0,46.2825 0,69.42 -0.15,0.56625 -0.3,1.1325 -0.45,1.69875 -1.875,7.6425 -8.175,12.70875 -16.0875,12.72 -16.2,0.0375 -32.4,0.015 -48.5625,0.015 -20.3625,-0.003 -40.725,0.0303 -61.0875,-0.027 -7.2,-0.021 -13.6125,-5.17125 -15.375,-12.16875 -0.1875,-0.74625 -0.4125,-1.4925 -0.6,-2.23875" />
  </g>
</svg>
