<?xml version="1.0" encoding="UTF-8" standalone="no"?>
<!-- Created with Inkscape (http://www.inkscape.org/) -->

<svg
   xmlns:dc="http://purl.org/dc/elements/1.1/"
   xmlns:cc="http://creativecommons.org/ns#"
   xmlns:rdf="http://www.w3.org/1999/02/22-rdf-syntax-ns#"
   xmlns:svg="http://www.w3.org/2000/svg"
   xmlns="http://www.w3.org/2000/svg"
   xmlns:sodipodi="http://sodipodi.sourceforge.net/DTD/sodipodi-0.dtd"
   xmlns:inkscape="http://www.inkscape.org/namespaces/inkscape"
   width="210mm"
   height="297mm"
   viewBox="0 0 744.09448819 1052.3622047"
   id="svg13385"
   version="1.1"
   inkscape:version="0.91 r13725"
   sodipodi:docname="fusee_noir.svg">
  <defs
     id="defs13387" />
  <sodipodi:namedview
     id="base"
     pagecolor="#ffffff"
     bordercolor="#666666"
     borderopacity="1.0"
     inkscape:pageopacity="0.0"
     inkscape:pageshadow="2"
     inkscape:zoom="1"
     inkscape:cx="548.57143"
     inkscape:cy="871.42883"
     inkscape:document-units="px"
     inkscape:current-layer="layer1"
     showgrid="false"
     inkscape:window-width="1920"
     inkscape:window-height="1016"
     inkscape:window-x="0"
     inkscape:window-y="27"
     inkscape:window-maximized="1" />
  <metadata
     id="metadata13390">
    <rdf:RDF>
      <cc:Work
         rdf:about="">
        <dc:format>image/svg+xml</dc:format>
        <dc:type
           rdf:resource="http://purl.org/dc/dcmitype/StillImage" />
        <dc:title></dc:title>
      </cc:Work>
    </rdf:RDF>
  </metadata>
  <g
     inkscape:label="Layer 1"
     inkscape:groupmode="layer"
     id="layer1">
    <path
       inkscape:connector-curvature="0"
       id="path4728"
       style="fill:#231f20;fill-opacity:1;fill-rule:nonzero;stroke:none"
       d="m 498.48393,232.75915 c -0.825,28.5375 -11.9625,55.815 -31.575,77.09244 l -4.5,4.8264 -82.8,82.8375 -82.3875,-82.41 -4.875,-5.2914 c -20.4375,-22.10619 -31.6875,-50.73744 -31.6875,-80.53119 0,-31.785 12.375,-61.6575 34.8375,-84.11625 22.4625,-22.49249 52.35,-34.84124 84.1125,-34.84124 56.5125,0 103.9125,39.62249 115.9875,92.54624 l 54.1875,0 c -12.7125,-82.54124 -84.075,-145.762492 -170.175,-145.762492 -47.55,0 -90.6,19.26375 -121.7625,50.411252 -31.125,31.155 -50.4,74.21999 -50.4,121.76249 0,45.05625 17.4375,85.95759 45.7875,116.64759 l -0.225,0.213 4.8,4.8225 0.1125,0.108 121.6875,121.6836 121.6125,-121.6125 0.15,-0.114 0.1125,-0.138 4.725,-4.7514 -0.225,-0.213 c 27.6,-29.895 44.85,-69.49509 45.7125,-113.17134 l -53.2125,0" />
    <path
       inkscape:connector-curvature="0"
       id="path4730"
       style="fill:#231f20;fill-opacity:1;fill-rule:nonzero;stroke:none"
       d="m 398.32143,340.09549 c 0,10.2375 -8.325,18.5325 -18.5625,18.5325 -10.2,0 -18.525,-8.295 -18.525,-18.5325 0,-10.2339 8.325,-18.5289 18.525,-18.5289 10.2375,0 18.5625,8.295 18.5625,18.5289" />
    <path
       inkscape:connector-curvature="0"
       id="path4732"
       style="fill:#231f20;fill-opacity:1;fill-rule:nonzero;stroke:none"
       d="m 496.83393,210.76165 c 0.675,4.60875 1.0875,9.3075 1.2,14.07375 l 53.2125,0 c -0.075,-4.73625 -0.3,-9.43875 -0.7875,-14.07375 l -53.625,0" />
    <path
       inkscape:connector-curvature="0"
       id="path4762"
       style="fill:#231f20;fill-opacity:1;fill-rule:evenodd;stroke:none"
       d="m 404.43393,210.0004 c 5.925,-0.0525 10.875,-5.0475 10.8,-10.89 -0.075,-5.91375 -5.0625,-10.86375 -10.9125,-10.78875 -5.925,0.0789 -10.8375,5.04 -10.7625,10.8975 0.0375,5.92125 5.025,10.8375 10.875,10.78125 z m -43.3125,59.72625 c -2.1375,-1.10625 -3.8625,-0.42 -5.625,0.45375 -1.275,0.63375 -2.6625,1.06125 -3.9,1.74375 -1.4625,0.81 -2.925,0.7725 -4.1625,-0.165 -2.925,-2.22 -5.9625,-4.3725 -8.5875,-6.94875 -2.55,-2.51625 -4.65,-5.4825 -6.8625,-8.33625 -1.0875,-1.43625 -1.2,-3.04125 -0.2625,-4.7475 0.8625,-1.60125 1.425,-3.3525 2.2125,-4.99875 0.4875,-0.9675 0.6,-1.85625 0.375,-2.9325 -0.225,-0.98625 -0.5625,-1.365 -1.575,-1.56375 -5.6625,-1.15875 -11.325,-2.39625 -16.9875,-3.6 -1.8,-0.38625 -1.9125,-0.6825 -0.7875,-2.115 3.7125,-4.7475 7.425,-9.4725 11.1,-14.26125 0.9,-1.18125 1.875,-1.66875 3.375,-1.635 6.8625,0.1575 13.725,0.1875 20.5875,0.315 0.9375,0.015 1.4625,-0.37125 2.025,-1.03875 10.5,-12.7875 21.0375,-25.54125 32.5125,-37.5075 7.9125,-8.27625 17.3625,-14.17875 28.0125,-18.19875 10.0875,-3.80625 20.55,-5.8425 31.35,-6.12375 0.4875,-0.015 0.9375,-0.003 1.65,-0.003 -0.15,2.67 -0.15,5.20125 -0.4125,7.71 -0.9,8.40375 -2.625,16.6275 -5.5875,24.57 -4.125,11.11125 -10.2375,20.925 -18.9,29.12625 -11.8125,11.1825 -24.3,21.5325 -36.8625,31.86 -0.7125,0.59625 -1.0125,1.17375 -1.0125,2.1225 0.1125,7.05 0.1875,14.1 0.3,21.14625 0.0375,1.245 -0.4125,2.08125 -1.35,2.83125 -4.95,3.78375 -9.7875,7.62 -14.7,11.43 -1.3125,1.0275 -1.6125,0.93 -1.95,-0.73125 -1.35,-6.1761 -2.6625,-12.3636 -3.975,-18.4011" />
    <path
       inkscape:connector-curvature="0"
       id="path4764"
       style="fill:#231f20;fill-opacity:1;fill-rule:evenodd;stroke:none"
       d="m 324.40893,256.29415 c 0.2625,0.36 0.4125,0.67875 0.6375,0.9375 0.825,0.9225 0.6375,1.6725 -0.0375,2.67375 -3.5625,5.175 -4.9875,11.08125 -5.625,17.21625 -0.1875,2.03625 -0.15,4.095 -0.2625,6.1425 -0.0375,0.85875 0.3,1.17 1.1625,1.17 8.55,-0.003 16.7625,-1.30875 24.075,-6.27375 0.3,-0.21 0.9,-0.1875 1.275,-0.0489 0.5625,0.2175 1.05,0.62625 1.65,1.00875 -3.5625,4.7625 -8.0625,8.1 -13.3875,10.40625 -6.3375,2.73375 -18.7875,4.69875 -23.5125,3.645 -0.975,-11.14125 2.0625,-28.3725 14.025,-36.8775" />
  </g>
</svg>
