<?xml version="1.0" encoding="UTF-8" standalone="no"?>
<!-- Created with Inkscape (http://www.inkscape.org/) -->

<svg
   xmlns:dc="http://purl.org/dc/elements/1.1/"
   xmlns:cc="http://creativecommons.org/ns#"
   xmlns:rdf="http://www.w3.org/1999/02/22-rdf-syntax-ns#"
   xmlns:svg="http://www.w3.org/2000/svg"
   xmlns="http://www.w3.org/2000/svg"
   xmlns:sodipodi="http://sodipodi.sourceforge.net/DTD/sodipodi-0.dtd"
   xmlns:inkscape="http://www.inkscape.org/namespaces/inkscape"
   width="210mm"
   height="297mm"
   viewBox="0 0 744.09448819 1052.3622047"
   id="svg15758"
   version="1.1"
   inkscape:version="0.91 r13725"
   sodipodi:docname="fusee_orange_transp.svg">
  <defs
     id="defs15760" />
  <sodipodi:namedview
     id="base"
     pagecolor="#ffffff"
     bordercolor="#666666"
     borderopacity="1.0"
     inkscape:pageopacity="0.0"
     inkscape:pageshadow="2"
     inkscape:zoom="0.35"
     inkscape:cx="-139.28571"
     inkscape:cy="520"
     inkscape:document-units="px"
     inkscape:current-layer="layer3"
     showgrid="false"
     inkscape:window-width="1920"
     inkscape:window-height="1016"
     inkscape:window-x="0"
     inkscape:window-y="27"
     inkscape:window-maximized="1" />
  <metadata
     id="metadata15763">
    <rdf:RDF>
      <cc:Work
         rdf:about="">
        <dc:format>image/svg+xml</dc:format>
        <dc:type
           rdf:resource="http://purl.org/dc/dcmitype/StillImage" />
        <dc:title></dc:title>
      </cc:Work>
    </rdf:RDF>
  </metadata>
  <g
     inkscape:groupmode="layer"
     id="layer3"
     inkscape:label="Layer 2"
     style="display:none">
    <rect
       style="opacity:1;fill:#000700;fill-opacity:1;stroke:#000000;stroke-opacity:1"
       id="rect16631"
       width="757.14288"
       height="1065.7142"
       x="-2.8571429"
       y="-1.9235096" />
  </g>
  <g
     inkscape:label="Layer 1"
     inkscape:groupmode="layer"
     id="layer1"
     style="display:inline">
    <path
       inkscape:connector-curvature="0"
       id="path4712"
       style="fill:#ffffff;fill-opacity:1;fill-rule:nonzero;stroke:none"
       d="m 1116.781,381.6372 c -0.275,9.5125 -3.9875,18.605 -10.525,25.6975 l -1.5,1.60875 -27.5975,27.61375 -27.4713,-27.47125 -1.6212,-1.7625 c -6.8113,-7.37 -10.5613,-16.91375 -10.5613,-26.845 0,-10.595 4.1288,-20.5525 11.6138,-28.0375 7.485,-7.49875 17.4437,-11.61375 28.04,-11.61375 18.84,0 34.635,13.20625 38.66,30.84625 l 18.0625,0 c -4.2375,-27.5125 -28.025,-48.58625 -56.7225,-48.58625 -15.8475,0 -30.2038,6.42125 -40.5863,16.805 -10.3837,10.38375 -16.805,24.73875 -16.805,40.58625 0,15.01875 5.8188,28.6525 15.2663,38.8825 l -0.081,0.0713 1.6075,1.6075 0.035,0.0362 40.5638,40.56125 40.535,-40.5375 0.05,-0.0375 0.037,-0.0475 1.575,-1.5825 -0.075,-0.0713 c 9.2,-9.965 14.95,-23.165 15.2375,-37.72375 l -17.7375,0" />
    <path
       inkscape:connector-curvature="0"
       id="path4714"
       style="fill:#ffffff;fill-opacity:1;fill-rule:nonzero;stroke:none"
       d="m 1083.3885,417.41595 c 0,3.4125 -2.7663,6.1775 -6.1763,6.1775 -3.4112,0 -6.1775,-2.765 -6.1775,-6.1775 0,-3.41 2.7663,-6.17625 6.1775,-6.17625 3.41,0 6.1763,2.76625 6.1763,6.17625" />
    <path
       inkscape:connector-curvature="0"
       id="path4716"
       style="fill:#ffffff;fill-opacity:1;fill-rule:nonzero;stroke:none"
       d="m 1116.231,374.30595 c 0.225,1.535 0.3625,3.10125 0.4,4.69 l 17.7375,0 c -0.025,-1.58 -0.1,-3.14625 -0.2625,-4.69 l -17.875,0" />
    <path
       inkscape:connector-curvature="0"
       id="path4722"
       style="fill:#ffffff;fill-opacity:1;fill-rule:nonzero;stroke:none"
       d="m 1077.7847,366.7397 c -5.955,0 -11.9087,0 -17.8625,0 -1.5225,0 -2.2137,0.71 -2.2312,2.24375 -0,0.365 0.094,0.575 0.4325,0.75875 6.4212,3.445 12.835,6.90625 19.2437,10.375 0.315,0.17125 0.5388,0.15 0.8438,-0.015 2.4075,-1.31375 4.825,-2.6075 7.2362,-3.91125 4.0025,-2.1575 8.0013,-4.31375 11.9963,-6.47875 0.1625,-0.0863 0.375,-0.2475 0.3875,-0.39125 0.2,-1.805 -0.775,-2.5975 -2.1413,-2.5925 -5.97,0.0238 -11.9375,0.0113 -17.905,0.0113 z m -20.0862,3.25375 c 0,0.30375 0,0.45625 0,0.60875 0,6.49375 0,12.99 0,19.48375 0,1.50125 0.7125,2.21125 2.2125,2.21125 11.9087,0 23.82,0 35.73,0 1.5025,0 2.215,-0.70875 2.215,-2.21125 0,-6.49375 0,-12.9875 0,-19.4825 0,-0.1625 -0.025,-0.325 -0.037,-0.59125 -4.0088,3.13 -7.9463,6.20125 -11.9188,9.29875 3.7738,3.86625 7.5038,7.6825 11.2313,11.49875 l -0.062,0.06 c -4.56,-3.26 -9.1275,-6.52125 -13.7113,-9.795 -1.405,0.91375 -2.8,1.82125 -4.1962,2.7275 -0.4513,0.29375 -0.9113,0.81125 -1.3625,0.80625 -0.4738,-0.007 -0.9463,-0.50875 -1.41,-0.80625 -1.3963,-0.905 -2.7888,-1.81375 -4.195,-2.7275 -4.5875,3.2725 -9.1538,6.535 -13.7213,9.7975 l -0.051,-0.0663 c 3.7362,-3.825 7.4737,-7.64875 11.2312,-11.495 -3.9825,-3.10625 -7.915,-6.1725 -11.9537,-9.3175 z m -3.6175,21.09375 c 0,-7.7125 0,-15.425 0,-23.14 0.051,-0.18875 0.1075,-0.37625 0.1537,-0.56625 0.6175,-2.5475 2.7263,-4.23625 5.3613,-4.24125 5.38,-0.0113 10.7612,-0.006 16.1425,-0.004 6.8012,0 13.6037,-0.01 20.4025,0.009 2.415,0.007 4.54,1.72375 5.14,4.055 0.062,0.25125 0.125,0.49875 0.1875,0.7475 0,7.715 0,15.4275 0,23.14 -0.05,0.18875 -0.1,0.3775 -0.15,0.56625 -0.625,2.5475 -2.725,4.23625 -5.3625,4.24 -5.3963,0.0125 -10.7938,0.005 -16.1913,0.005 -6.785,-0.001 -13.5712,0.01 -20.355,-0.009 -2.4087,-0.007 -4.5362,-1.7236 -5.1337,-4.0561 -0.064,-0.24875 -0.1313,-0.4975 -0.195,-0.74625" />
    <path
       inkscape:connector-curvature="0"
       id="path4266"
       style="fill:#f1511b;fill-opacity:1;fill-rule:nonzero;stroke:none"
       d="m 493.16253,291.61569 c -0.84,28.5375 -11.9625,55.815 -31.60125,77.0925 l -4.47375,4.82625 -82.8,82.8375 -82.41375,-82.41 -4.86375,-5.29125 c -20.43375,-22.10625 -31.68375,-50.7375 -31.68375,-80.53125 0,-31.785 12.38625,-61.6575 34.84125,-84.11625 22.455,-22.4925 52.33125,-34.84125 84.12,-34.84125 56.52,0 103.92,39.6225 115.965,92.54625 l 54.19125,0 c -12.71625,-82.54125 -84.06,-145.7625 -170.15625,-145.7625 -47.5425,0 -90.6075,19.26375 -121.75875,50.41125 -31.15125,31.155 -50.415,74.22 -50.415,121.7625 0,45.05625 17.45625,85.9575 45.8025,116.6475 l -0.2475,0.2139 4.8225,4.8225 0.1086,0.1086 121.6875,121.68375 121.61625,-121.6125 0.1425,-0.1125 0.1086,-0.1386 4.7175,-4.75125 -0.2136,-0.2139 c 27.61125,-29.895 44.83875,-69.495 45.71625,-113.17125 l -53.2125,0" />
    <path
       inkscape:connector-curvature="0"
       id="path4268"
       style="fill:#f1511b;fill-opacity:1;fill-rule:nonzero;stroke:none"
       d="m 392.97753,398.95194 c 0,10.2375 -8.29875,18.5325 -18.52875,18.5325 -10.23375,0 -18.5325,-8.295 -18.5325,-18.5325 0,-10.23375 8.29875,-18.52875 18.5325,-18.52875 10.23,0 18.52875,8.295 18.52875,18.52875" />
    <path
       inkscape:connector-curvature="0"
       id="path4270"
       style="fill:#f1511b;fill-opacity:1;fill-rule:nonzero;stroke:none"
       d="m 491.51628,269.61819 c 0.675,4.60875 1.065,9.3075 1.19625,14.07375 l 53.21625,0 c -0.0864,-4.73625 -0.3225,-9.43875 -0.79125,-14.07375 l -53.62125,0" />
    <path
       inkscape:connector-curvature="0"
       id="path4342"
       style="fill:#f1511b;fill-opacity:1;fill-rule:evenodd;stroke:none"
       d="m 399.11253,268.85694 c 5.91,-0.0525 10.85625,-5.0475 10.78875,-10.89 -0.075,-5.91375 -5.0775,-10.86375 -10.90125,-10.78875 -5.92875,0.0789 -10.8375,5.04 -10.7775,10.8975 0.0564,5.92125 5.02125,10.8375 10.89,10.78125 z m -43.305,59.72625 c -2.1375,-1.10625 -3.885,-0.42 -5.63625,0.45375 -1.275,0.63375 -2.65875,1.06125 -3.90375,1.74375 -1.46625,0.81 -2.90625,0.7725 -4.14375,-0.165 -2.9475,-2.22 -5.985,-4.3725 -8.59875,-6.94875 -2.55,-2.51625 -4.665,-5.4825 -6.8625,-8.33625 -1.1025,-1.43625 -1.21125,-3.04125 -0.2811,-4.7475 0.87375,-1.60125 1.45125,-3.3525 2.2425,-4.99875 0.46875,-0.9675 0.5775,-1.85625 0.3525,-2.9325 -0.2136,-0.98625 -0.57375,-1.365 -1.5525,-1.56375 -5.67375,-1.15875 -11.3325,-2.39625 -16.995,-3.6 -1.8,-0.38625 -1.91625,-0.6825 -0.8025,-2.115 3.70125,-4.7475 7.4325,-9.4725 11.08875,-14.26125 0.90375,-1.18125 1.8825,-1.66875 3.3825,-1.635 6.87,0.1575 13.74,0.1875 20.61,0.315 0.93375,0.015 1.45875,-0.37125 1.99875,-1.03875 10.51125,-12.7875 21.06,-25.54125 32.52,-37.5075 7.9125,-8.27625 17.3625,-14.17875 28.0275,-18.19875 10.0875,-3.80625 20.53875,-5.8425 31.3275,-6.12375 0.48375,-0.015 0.96,-0.003 1.665,-0.003 -0.1425,2.67 -0.1686,5.20125 -0.435,7.71 -0.89625,8.40375 -2.61,16.6275 -5.5725,24.57 -4.13625,11.11125 -10.245,20.925 -18.89625,29.12625 -11.7975,11.1825 -24.3075,21.5325 -36.84375,31.86 -0.72375,0.59625 -1.04625,1.17375 -1.03125,2.1225 0.1314,7.05 0.1764,14.1 0.3075,21.14625 0.021,1.245 -0.40125,2.08125 -1.37625,2.83125 -4.9125,3.78375 -9.78375,7.62 -14.6775,11.43 -1.30875,1.0275 -1.605,0.93 -1.965,-0.73125 -1.33875,-6.1761 -2.65125,-12.3636 -3.94875,-18.4011" />
    <path
       inkscape:connector-curvature="0"
       id="path4344"
       style="fill:#f1511b;fill-opacity:1;fill-rule:evenodd;stroke:none"
       d="m 319.09503,315.15069 c 0.2325,0.36 0.39375,0.67875 0.6225,0.9375 0.81,0.9225 0.63375,1.6725 -0.0525,2.67375 -3.55125,5.175 -4.98,11.08125 -5.6025,17.21625 -0.2025,2.03625 -0.1611,4.095 -0.2664,6.1425 -0.045,0.85875 0.2961,1.17 1.15875,1.17 8.56875,-0.003 16.78125,-1.30875 24.06,-6.27375 0.30375,-0.21 0.9,-0.1875 1.275,-0.0489 0.56625,0.2175 1.0575,0.62625 1.6575,1.00875 -3.54,4.7625 -8.04,8.1 -13.37625,10.40625 -6.32625,2.73375 -18.80625,4.69875 -23.5125,3.645 -0.97125,-11.14125 2.0625,-28.3725 14.03625,-36.8775" />
  </g>
</svg>
