<?xml version="1.0" encoding="UTF-8" standalone="no"?>
<!-- Created with Inkscape (http://www.inkscape.org/) -->

<svg
   xmlns:dc="http://purl.org/dc/elements/1.1/"
   xmlns:cc="http://creativecommons.org/ns#"
   xmlns:rdf="http://www.w3.org/1999/02/22-rdf-syntax-ns#"
   xmlns:svg="http://www.w3.org/2000/svg"
   xmlns="http://www.w3.org/2000/svg"
   xmlns:sodipodi="http://sodipodi.sourceforge.net/DTD/sodipodi-0.dtd"
   xmlns:inkscape="http://www.inkscape.org/namespaces/inkscape"
   width="210mm"
   height="297mm"
   viewBox="0 0 744.09448819 1052.3622047"
   id="svg4421"
   version="1.1"
   inkscape:version="0.91 r13725"
   sodipodi:docname="logo_facebook_orange.svg">
  <defs
     id="defs4423" />
  <sodipodi:namedview
     id="base"
     pagecolor="#ffffff"
     bordercolor="#666666"
     borderopacity="1.0"
     inkscape:pageopacity="0.0"
     inkscape:pageshadow="2"
     inkscape:zoom="0.35"
     inkscape:cx="-142.14286"
     inkscape:cy="520"
     inkscape:document-units="px"
     inkscape:current-layer="g20"
     showgrid="false"
     inkscape:window-width="1920"
     inkscape:window-height="1016"
     inkscape:window-x="0"
     inkscape:window-y="27"
     inkscape:window-maximized="1" />
  <metadata
     id="metadata4426">
    <rdf:RDF>
      <cc:Work
         rdf:about="">
        <dc:format>image/svg+xml</dc:format>
        <dc:type
           rdf:resource="http://purl.org/dc/dcmitype/StillImage" />
        <dc:title></dc:title>
      </cc:Work>
    </rdf:RDF>
  </metadata>
  <g
     inkscape:label="Layer 1"
     inkscape:groupmode="layer"
     id="layer1">
    <g
       id="g20"
       transform="matrix(2.86875,0,0,-2.86875,606.81421,507.63177)">
      <path
         d="m 0,0 c 0,-5.5 -4.5,-10 -10,-10 l -150.079,0 c -5.5,0 -10,4.5 -10,10 l 0,150.079 c 0,5.5 4.5,10 10,10 l 150.079,0 c 5.5,0 10,-4.5 10,-10 L 0,0 Z"
         style="fill:#f1511b;fill-opacity:1;fill-rule:nonzero;stroke:none"
         id="path22"
         inkscape:connector-curvature="0"
         inkscape:export-xdpi="90"
         inkscape:export-ydpi="90" />
    </g>
    <g
       id="g24"
       transform="matrix(2.86875,0,0,-2.86875,329.94293,218.1989)">
      <path
         d="m 0,0 0,-12.711 -9.313,0 0,-15.545 9.313,0 0,-42.655 19.131,0 0,42.655 12.836,0 c 0,0 1.203,7.453 1.784,15.604 l -14.548,0 0,10.627 c 0,1.587 2.085,3.725 4.148,3.725 l 10.422,0 0,16.183 -14.17,0 C -0.473,17.883 0,2.323 0,0"
         style="fill:#3b3c3c;fill-opacity:1;fill-rule:nonzero;stroke:none"
         id="path26"
         inkscape:connector-curvature="0" />
    </g>
    <g
       id="g28"
       transform="matrix(2.86875,0,0,-2.86875,327.77272,216.29998)">
      <path
         d="m 0,0 0,-12.711 -9.313,0 0,-15.545 9.313,0 0,-42.655 19.131,0 0,42.655 12.836,0 c 0,0 1.202,7.453 1.784,15.604 l -14.548,0 0,10.627 c 0,1.587 2.085,3.725 4.147,3.725 l 10.423,0 0,16.183 -14.171,0 C -0.473,17.883 0,2.323 0,0"
         style="fill:#ffffff;fill-opacity:1;fill-rule:nonzero;stroke:none"
         id="path30"
         inkscape:connector-curvature="0" />
    </g>
  </g>
</svg>
