<?xml version="1.0" encoding="UTF-8" standalone="no"?>
<!-- Created with Inkscape (http://www.inkscape.org/) -->

<svg
   xmlns:dc="http://purl.org/dc/elements/1.1/"
   xmlns:cc="http://creativecommons.org/ns#"
   xmlns:rdf="http://www.w3.org/1999/02/22-rdf-syntax-ns#"
   xmlns:svg="http://www.w3.org/2000/svg"
   xmlns="http://www.w3.org/2000/svg"
   xmlns:sodipodi="http://sodipodi.sourceforge.net/DTD/sodipodi-0.dtd"
   xmlns:inkscape="http://www.inkscape.org/namespaces/inkscape"
   width="210mm"
   height="297mm"
   viewBox="0 0 744.09448819 1052.3622047"
   id="svg9562"
   version="1.1"
   inkscape:version="0.91 r13725"
   sodipodi:docname="logo_linkedin_orange.svg">
  <defs
     id="defs9564" />
  <sodipodi:namedview
     id="base"
     pagecolor="#ffffff"
     bordercolor="#666666"
     borderopacity="1.0"
     inkscape:pageopacity="0.0"
     inkscape:pageshadow="2"
     inkscape:zoom="0.35"
     inkscape:cx="-139.28571"
     inkscape:cy="520"
     inkscape:document-units="px"
     inkscape:current-layer="g56"
     showgrid="false"
     inkscape:window-width="1920"
     inkscape:window-height="1016"
     inkscape:window-x="0"
     inkscape:window-y="27"
     inkscape:window-maximized="1" />
  <metadata
     id="metadata9567">
    <rdf:RDF>
      <cc:Work
         rdf:about="">
        <dc:format>image/svg+xml</dc:format>
        <dc:type
           rdf:resource="http://purl.org/dc/dcmitype/StillImage" />
        <dc:title></dc:title>
      </cc:Work>
    </rdf:RDF>
  </metadata>
  <g
     inkscape:label="Layer 1"
     inkscape:groupmode="layer"
     id="layer1">
    <g
       id="g56"
       transform="matrix(2.86875,0,0,-2.86875,626.8142,513.34606)">
      <path
         d="m 0,0 c 0,-5.5 -4.5,-10 -10,-10 l -150.079,0 c -5.5,0 -10,4.5 -10,10 l 0,150.079 c 0,5.5 4.5,10 10,10 l 150.079,0 c 5.5,0 10,-4.5 10,-10 L 0,0 Z"
         style="fill:#f1511b;fill-opacity:1;fill-rule:nonzero;stroke:none"
         id="path58"
         inkscape:connector-curvature="0"
         inkscape:export-xdpi="90"
         inkscape:export-ydpi="90" />
    </g>
    <g
       id="g60"
       transform="matrix(2.86875,0,0,-2.86875,491.56096,398.0773)">
      <path
         d="m 0,0 -17,0 0,22.851 c 0,6.503 -1.529,10.938 -7.379,10.938 -4.475,0 -7.527,-2.994 -8.693,-5.883 C -33.506,26.875 -34,25.43 -34,23.989 L -34,0 -48.576,0 c 0,0 0.212,44 0,48 l 14.576,0 0,-9.521 c 1,3.295 6.379,7.994 14.973,7.994 C -8.379,46.473 0,39.566 0,24.705 L 0,0 Z m -65.615,54 -0.109,0 c -5.425,0 -8.943,2.682 -8.943,7.329 0,4.739 3.621,7.834 9.156,7.834 5.534,0 8.939,-2.839 9.046,-7.578 0,-4.647 -3.512,-7.585 -9.15,-7.585 M -60,0 l -15,0 0,48 15,0 0,-48 z"
         style="fill:#3b3c3c;fill-opacity:1;fill-rule:nonzero;stroke:none"
         id="path62"
         inkscape:connector-curvature="0" />
    </g>
    <g
       id="g64"
       transform="matrix(2.86875,0,0,-2.86875,493.40939,399.50211)">
      <path
         d="m 0,0 -17,0 0,24.837 c 0,6.503 -2.662,10.937 -8.512,10.937 -4.474,0 -6.958,-2.993 -8.123,-5.882 C -34.068,28.86 -34,27.416 -34,25.975 L -34,0 -50.842,0 c 0,0 0.212,44 0,48 l 16.842,0 0,-7.535 c 1,3.295 6.379,7.993 14.973,7.993 C -8.379,48.458 0,41.552 0,26.69 L 0,0 Z m -67.881,54 -0.108,0 c -5.426,0 -8.944,3.673 -8.944,8.32 0,4.74 3.621,8.333 9.157,8.333 5.534,0 8.938,-3.584 9.046,-8.322 0,-4.648 -3.512,-8.331 -9.151,-8.331 M -60,0 l -15,0 0,48 15,0 0,-48 z"
         style="fill:#ffffff;fill-opacity:1;fill-rule:nonzero;stroke:none"
         id="path66"
         inkscape:connector-curvature="0" />
    </g>
  </g>
</svg>
