<?xml version="1.0" encoding="UTF-8" standalone="no"?>
<!-- Created with Inkscape (http://www.inkscape.org/) -->

<svg
   xmlns:dc="http://purl.org/dc/elements/1.1/"
   xmlns:cc="http://creativecommons.org/ns#"
   xmlns:rdf="http://www.w3.org/1999/02/22-rdf-syntax-ns#"
   xmlns:svg="http://www.w3.org/2000/svg"
   xmlns="http://www.w3.org/2000/svg"
   xmlns:sodipodi="http://sodipodi.sourceforge.net/DTD/sodipodi-0.dtd"
   xmlns:inkscape="http://www.inkscape.org/namespaces/inkscape"
   width="210mm"
   height="297mm"
   viewBox="0 0 744.09448819 1052.3622047"
   id="svg13979"
   version="1.1"
   inkscape:version="0.91 r13725"
   sodipodi:docname="pts_noir.svg">
  <defs
     id="defs13981" />
  <sodipodi:namedview
     id="base"
     pagecolor="#ffffff"
     bordercolor="#666666"
     borderopacity="1.0"
     inkscape:pageopacity="0.0"
     inkscape:pageshadow="2"
     inkscape:zoom="0.35"
     inkscape:cx="-136.42857"
     inkscape:cy="520"
     inkscape:document-units="px"
     inkscape:current-layer="layer1"
     showgrid="false"
     inkscape:window-width="1920"
     inkscape:window-height="1016"
     inkscape:window-x="0"
     inkscape:window-y="27"
     inkscape:window-maximized="1" />
  <metadata
     id="metadata13984">
    <rdf:RDF>
      <cc:Work
         rdf:about="">
        <dc:format>image/svg+xml</dc:format>
        <dc:type
           rdf:resource="http://purl.org/dc/dcmitype/StillImage" />
        <dc:title></dc:title>
      </cc:Work>
    </rdf:RDF>
  </metadata>
  <g
     inkscape:label="Layer 1"
     inkscape:groupmode="layer"
     id="layer1">
    <path
       inkscape:connector-curvature="0"
       id="path4734"
       style="fill:#231f20;fill-opacity:1;fill-rule:nonzero;stroke:none"
       d="m 493.19822,251.61577 c -0.825,28.5375 -11.9625,55.815 -31.575,77.0925 l -4.5,4.82625 -82.8,82.8375 -82.3875,-82.41 -4.875,-5.29125 c -20.4375,-22.10625 -31.6875,-50.7375 -31.6875,-80.53125 0,-31.785 12.375,-61.6575 34.8375,-84.11625 22.4625,-22.4925 52.35,-34.84125 84.1125,-34.84125 56.5125,0 103.9125,39.6225 115.9875,92.54625 l 54.1875,0 c -12.7125,-82.54125 -84.075,-145.762497 -170.175,-145.762497 -47.55,0 -90.6,19.26375 -121.7625,50.411247 -31.125,31.155 -50.4,74.22 -50.4,121.7625 0,45.05625 17.4375,85.9575 45.7875,116.6475 l -0.225,0.2139 4.8,4.8225 0.1125,0.1086 121.6875,121.68375 121.6125,-121.6125 0.15,-0.1125 0.1125,-0.1386 4.725,-4.75125 -0.225,-0.2139 c 27.6,-29.895 44.85,-69.495 45.7125,-113.17125 l -53.2125,0" />
    <path
       inkscape:connector-curvature="0"
       id="path4736"
       style="fill:#231f20;fill-opacity:1;fill-rule:nonzero;stroke:none"
       d="m 393.03572,358.95202 c 0,10.2375 -8.325,18.5325 -18.5625,18.5325 -10.2,0 -18.525,-8.295 -18.525,-18.5325 0,-10.23375 8.325,-18.52875 18.525,-18.52875 10.2375,0 18.5625,8.295 18.5625,18.52875" />
    <path
       inkscape:connector-curvature="0"
       id="path4738"
       style="fill:#231f20;fill-opacity:1;fill-rule:nonzero;stroke:none"
       d="m 491.54822,229.61827 c 0.675,4.60875 1.0875,9.3075 1.2,14.07375 l 53.2125,0 c -0.075,-4.73625 -0.3,-9.43875 -0.7875,-14.07375 l -53.625,0" />
    <path
       inkscape:connector-curvature="0"
       id="path4756"
       style="fill:#231f20;fill-opacity:1;fill-rule:evenodd;stroke:none"
       d="m 411.97322,222.66202 c -8.175,0.018 -15,6.84 -15,14.985 0,8.12625 6.75,14.94375 14.9625,15.0375 8.1375,0.0936 15.15,-6.915 15.075,-15.08625 -0.075,-8.18625 -6.9,-14.955 -15.0375,-14.93625 z m 6.6,93.01125 c -4.275,0 -8.475,0 -12.4125,0 -0.825,-4.32375 -1.2,-8.64 -2.5125,-12.6525 -2.0625,-6.45375 -4.5,-12.8325 -7.275,-19.01625 -4.3875,-9.6525 -9.2625,-19.06125 -13.725,-28.6725 -2.7,-5.8575 -4.95,-11.92125 -4.8375,-18.5475 0.3,-16.5525 12.7875,-30.61125 29.2125,-32.925 18.2625,-2.5725 34.8,9.14625 38.55,27.16125 1.35,6.5175 0.3375,12.73125 -2.175,18.735 -2.3625,5.7825 -5.0625,11.44875 -7.6125,17.14875 -3.975,8.71875 -8.1,17.35125 -11.85,26.14875 -2.925,6.8325 -4.8375,13.995 -5.2125,21.48375 -0.0375,0.34875 -0.1125,0.69375 -0.15,1.13625" />
    <path
       inkscape:connector-curvature="0"
       id="path4758"
       style="fill:#231f20;fill-opacity:1;fill-rule:evenodd;stroke:none"
       d="m 319.72322,208.86202 c 0.075,8.16 6.9375,14.97 15.0375,14.955 8.1375,-0.015 14.9625,-6.85875 15,-14.99625 0.0375,-8.16375 -7.0125,-15.16125 -15.1125,-15.03375 -8.2125,0.1275 -14.9625,6.97125 -14.925,15.075 z m 21.45,77.96625 c -4.1625,0 -8.2875,0 -12.4875,0 -0.375,-2.78625 -0.6,-5.53875 -1.125,-8.235 -1.575,-8.22375 -4.7625,-15.9 -8.325,-23.415 -4.5375,-9.5175 -9.3375,-18.9 -13.65,-28.5 -1.9875,-4.41 -3.8625,-9.10125 -4.5375,-13.84125 -1.9125,-13.77375 3.45,-24.825 14.8125,-32.48625 20.4,-13.74375 47.9625,-1.90875 52.575,22.2375 1.2,6.40875 0.225,12.54375 -2.325,18.36375 -4.3875,10.02375 -9.075,19.93125 -13.725,29.86125 -3.8625,8.30625 -7.575,16.66875 -9.5625,25.65375 -0.75,3.33375 -1.0875,6.75375 -1.65,10.36125" />
  </g>
</svg>
